<mxfile host="app.diagrams.net" modified="2020-06-18T19:43:05.330Z" agent="5.0 (Windows NT 10.0; Win64; x64) AppleWebKit/537.36 (KHTML, like Gecko) Chrome/83.0.4103.106 Safari/537.36" etag="nO2dEfA4quUONxlishdo" version="13.2.6" type="github">
  <diagram id="kvq_iJzbC6Ift1ooBYrA" name="Prototipo_App_Movil">
    <mxGraphModel dx="866" dy="1659" grid="1" gridSize="10" guides="1" tooltips="1" connect="1" arrows="1" fold="1" page="1" pageScale="1" pageWidth="827" pageHeight="1169" math="0" shadow="0">
      <root>
        <mxCell id="0" />
        <mxCell id="1" parent="0" />
        <mxCell id="OS6yYsOtvx3zatkeSCnz-1" style="rounded=0;orthogonalLoop=1;jettySize=auto;html=1;entryX=-0.006;entryY=0.503;entryDx=0;entryDy=0;entryPerimeter=0;fontSize=9;exitX=1.005;exitY=0.504;exitDx=0;exitDy=0;exitPerimeter=0;strokeColor=#FF0000;" parent="1" source="OS6yYsOtvx3zatkeSCnz-2" target="OS6yYsOtvx3zatkeSCnz-3" edge="1">
          <mxGeometry relative="1" as="geometry" />
        </mxCell>
        <mxCell id="OS6yYsOtvx3zatkeSCnz-2" value="" style="verticalLabelPosition=bottom;verticalAlign=top;html=1;shadow=0;dashed=0;strokeWidth=1;shape=mxgraph.android.phone2;" parent="1" vertex="1">
          <mxGeometry x="35.5" y="50" width="200" height="390" as="geometry" />
        </mxCell>
        <mxCell id="OS6yYsOtvx3zatkeSCnz-3" value="" style="verticalLabelPosition=bottom;verticalAlign=top;html=1;shadow=0;dashed=0;strokeWidth=1;shape=mxgraph.android.phone2;" parent="1" vertex="1">
          <mxGeometry x="365.76" y="51" width="200" height="390" as="geometry" />
        </mxCell>
        <mxCell id="OS6yYsOtvx3zatkeSCnz-4" value="¿No tienes cuenta? &lt;font color=&quot;#0000ff&quot;&gt;&lt;b&gt;Registrate&lt;/b&gt;&lt;/font&gt;" style="text;html=1;align=center;verticalAlign=middle;resizable=0;points=[];autosize=1;fontSize=10;" parent="OS6yYsOtvx3zatkeSCnz-3" vertex="1">
          <mxGeometry x="25" y="290" width="150" height="20" as="geometry" />
        </mxCell>
        <mxCell id="OS6yYsOtvx3zatkeSCnz-6" value="Screen Splash Inicio" style="text;html=1;align=center;verticalAlign=middle;resizable=0;points=[];autosize=1;" parent="1" vertex="1">
          <mxGeometry x="81.75" y="460" width="120" height="20" as="geometry" />
        </mxCell>
        <mxCell id="OS6yYsOtvx3zatkeSCnz-8" value="" style="verticalLabelPosition=bottom;verticalAlign=top;html=1;shadow=0;dashed=0;strokeWidth=1;shape=mxgraph.android.phone2;fontSize=10;" parent="1" vertex="1">
          <mxGeometry x="1060" y="47.99999999999999" width="200" height="392" as="geometry" />
        </mxCell>
        <mxCell id="OS6yYsOtvx3zatkeSCnz-9" value="&lt;span style=&quot;font-size: 8px&quot;&gt;Santa Anita&lt;/span&gt;" style="text;html=1;align=center;verticalAlign=middle;resizable=0;points=[];autosize=1;fontSize=9;horizontal=1;labelPosition=center;verticalLabelPosition=middle;spacing=0;" parent="OS6yYsOtvx3zatkeSCnz-8" vertex="1">
          <mxGeometry x="25" y="154.78974358974358" width="60" height="20" as="geometry" />
        </mxCell>
        <mxCell id="OS6yYsOtvx3zatkeSCnz-11" style="edgeStyle=elbowEdgeStyle;rounded=0;orthogonalLoop=1;jettySize=auto;html=1;strokeColor=#FF0000;fontSize=10;fontColor=#999999;entryX=0.002;entryY=0.436;entryDx=0;entryDy=0;entryPerimeter=0;" parent="1" source="OS6yYsOtvx3zatkeSCnz-12" target="OS6yYsOtvx3zatkeSCnz-18" edge="1">
          <mxGeometry relative="1" as="geometry">
            <mxPoint x="839" y="405" as="targetPoint" />
            <Array as="points">
              <mxPoint x="610" y="280" />
            </Array>
          </mxGeometry>
        </mxCell>
        <mxCell id="OS6yYsOtvx3zatkeSCnz-12" value="Ingresar" style="rounded=1;html=1;shadow=0;dashed=0;whiteSpace=wrap;fontSize=10;fillColor=#808080;align=center;strokeColor=#4D4D4D;fontColor=#ffffff;" parent="1" vertex="1">
          <mxGeometry x="399.5" y="317.97" width="130" height="21" as="geometry" />
        </mxCell>
        <mxCell id="OS6yYsOtvx3zatkeSCnz-13" value="" style="strokeWidth=1;html=1;shadow=0;dashed=0;shape=mxgraph.android.statusBar;align=center;fillColor=#000000;strokeColor=#ffffff;fontColor=#ffffff;fontSize=10;" parent="1" vertex="1">
          <mxGeometry x="375.5" y="90" width="180" height="15.82" as="geometry" />
        </mxCell>
        <mxCell id="OS6yYsOtvx3zatkeSCnz-14" value="" style="strokeWidth=1;html=1;shadow=0;dashed=0;shape=mxgraph.android.statusBar;align=center;fillColor=#000000;strokeColor=#ffffff;fontColor=#ffffff;fontSize=10;" parent="1" vertex="1">
          <mxGeometry x="45.5" y="90" width="180" height="15.82" as="geometry" />
        </mxCell>
        <mxCell id="cEmm-lbTZ2bHwCcyf1ZS-3" style="rounded=0;orthogonalLoop=1;jettySize=auto;html=1;strokeColor=#FF0000;exitX=0.997;exitY=0.482;exitDx=0;exitDy=0;exitPerimeter=0;entryX=0;entryY=0.489;entryDx=0;entryDy=0;entryPerimeter=0;" parent="1" source="OS6yYsOtvx3zatkeSCnz-18" target="OS6yYsOtvx3zatkeSCnz-8" edge="1">
          <mxGeometry relative="1" as="geometry">
            <mxPoint x="940" y="238" as="sourcePoint" />
            <mxPoint x="1060" y="238" as="targetPoint" />
          </mxGeometry>
        </mxCell>
        <mxCell id="OS6yYsOtvx3zatkeSCnz-18" value="" style="verticalLabelPosition=bottom;verticalAlign=top;html=1;shadow=0;dashed=0;strokeWidth=1;shape=mxgraph.android.phone2;" parent="1" vertex="1">
          <mxGeometry x="740" y="52" width="200" height="390" as="geometry" />
        </mxCell>
        <mxCell id="OS6yYsOtvx3zatkeSCnz-19" value="Iniciar Sesión y Password" style="text;html=1;align=center;verticalAlign=middle;resizable=0;points=[];autosize=1;fontSize=12;" parent="1" vertex="1">
          <mxGeometry x="390.5" y="460" width="150" height="20" as="geometry" />
        </mxCell>
        <mxCell id="OS6yYsOtvx3zatkeSCnz-20" value="" style="strokeWidth=1;html=1;shadow=0;dashed=0;shape=mxgraph.android.statusBar;align=center;fillColor=#000000;strokeColor=#ffffff;fontColor=#ffffff;fontSize=10;" parent="1" vertex="1">
          <mxGeometry x="1070" y="90" width="180" height="15.82" as="geometry" />
        </mxCell>
        <mxCell id="OS6yYsOtvx3zatkeSCnz-21" value="" style="html=1;shadow=0;dashed=0;shape=mxgraph.bootstrap.rrect;rSize=5;strokeColor=#E6E6E6;html=1;whiteSpace=wrap;fillColor=#E6E6E6;fontColor=#ffffff;verticalAlign=bottom;align=left;spacing=9;spacingBottom=0;fontSize=14;spacingLeft=6;" parent="1" vertex="1">
          <mxGeometry x="1090" y="150" width="55" height="55" as="geometry" />
        </mxCell>
        <mxCell id="OS6yYsOtvx3zatkeSCnz-22" value="" style="shape=rect;fillColor=#e0e0e0;strokeColor=none;fontSize=12;align=center;" parent="1" vertex="1">
          <mxGeometry x="1412" y="116.5" width="130" height="20" as="geometry" />
        </mxCell>
        <mxCell id="OS6yYsOtvx3zatkeSCnz-23" value="" style="html=1;strokeWidth=1;shadow=0;dashed=0;shape=mxgraph.ios7ui.marginRect;rx=3;ry=3;rectMargin=5;strokeColor=none;" parent="OS6yYsOtvx3zatkeSCnz-22" vertex="1">
          <mxGeometry width="130" height="20" as="geometry" />
        </mxCell>
        <mxCell id="T730AlBzIM1R5gKessqT-2" value="El Agustino" style="text;html=1;strokeColor=none;fillColor=none;align=center;verticalAlign=middle;whiteSpace=wrap;rounded=0;fontSize=8;horizontal=1;" parent="OS6yYsOtvx3zatkeSCnz-22" vertex="1">
          <mxGeometry x="10" width="50" height="20" as="geometry" />
        </mxCell>
        <mxCell id="cEmm-lbTZ2bHwCcyf1ZS-39" style="edgeStyle=elbowEdgeStyle;rounded=0;orthogonalLoop=1;jettySize=auto;html=1;endArrow=classic;endFill=1;endSize=9;strokeColor=#FF0000;fontSize=11;fontColor=#000000;" parent="1" source="OS6yYsOtvx3zatkeSCnz-25" target="cEmm-lbTZ2bHwCcyf1ZS-8" edge="1">
          <mxGeometry relative="1" as="geometry">
            <Array as="points">
              <mxPoint x="1020" y="760" />
              <mxPoint x="1020" y="690" />
              <mxPoint x="1020" y="640" />
              <mxPoint x="1020" y="340" />
            </Array>
          </mxGeometry>
        </mxCell>
        <mxCell id="OS6yYsOtvx3zatkeSCnz-25" value="" style="html=1;verticalLabelPosition=bottom;labelBackgroundColor=#ffffff;verticalAlign=top;shadow=0;dashed=0;strokeWidth=2;shape=mxgraph.ios7.misc.options;fillColor=#999999;fontSize=12;align=center;" parent="1" vertex="1">
          <mxGeometry x="1077" y="120" width="13" height="13" as="geometry" />
        </mxCell>
        <mxCell id="OS6yYsOtvx3zatkeSCnz-26" value="&lt;font style=&quot;font-size: 8px&quot;&gt;El Agustino&lt;/font&gt;" style="text;html=1;align=center;verticalAlign=middle;resizable=0;points=[];autosize=1;fontSize=9;" parent="1" vertex="1">
          <mxGeometry x="1174" y="205" width="60" height="20" as="geometry" />
        </mxCell>
        <mxCell id="OS6yYsOtvx3zatkeSCnz-27" value="" style="html=1;shadow=0;dashed=0;shape=mxgraph.bootstrap.rrect;rSize=5;strokeColor=#E6E6E6;html=1;whiteSpace=wrap;fillColor=#E6E6E6;fontColor=#ffffff;verticalAlign=bottom;align=left;spacing=9;spacingBottom=0;fontSize=14;spacingLeft=6;" parent="1" vertex="1">
          <mxGeometry x="1176.5" y="150" width="55" height="55" as="geometry" />
        </mxCell>
        <mxCell id="OS6yYsOtvx3zatkeSCnz-28" value="" style="html=1;shadow=0;dashed=0;shape=mxgraph.bootstrap.rrect;rSize=5;strokeColor=#E6E6E6;html=1;whiteSpace=wrap;fillColor=#E6E6E6;fontColor=#ffffff;verticalAlign=bottom;align=left;spacing=9;spacingBottom=0;fontSize=14;spacingLeft=6;" parent="1" vertex="1">
          <mxGeometry x="1090" y="225" width="55" height="55" as="geometry" />
        </mxCell>
        <mxCell id="OS6yYsOtvx3zatkeSCnz-29" value="" style="html=1;shadow=0;dashed=0;shape=mxgraph.bootstrap.rrect;rSize=5;strokeColor=#E6E6E6;html=1;whiteSpace=wrap;fillColor=#E6E6E6;fontColor=#ffffff;verticalAlign=bottom;align=left;spacing=9;spacingBottom=0;fontSize=14;spacingLeft=6;" parent="1" vertex="1">
          <mxGeometry x="1090" y="300" width="55" height="55" as="geometry" />
        </mxCell>
        <mxCell id="OS6yYsOtvx3zatkeSCnz-30" value="" style="html=1;shadow=0;dashed=0;shape=mxgraph.bootstrap.rrect;rSize=5;strokeColor=#E6E6E6;html=1;whiteSpace=wrap;fillColor=#E6E6E6;fontColor=#ffffff;verticalAlign=bottom;align=left;spacing=9;spacingBottom=0;fontSize=14;spacingLeft=6;" parent="1" vertex="1">
          <mxGeometry x="1176.5" y="225" width="55" height="55" as="geometry" />
        </mxCell>
        <mxCell id="OS6yYsOtvx3zatkeSCnz-31" value="&lt;font style=&quot;font-size: 8px&quot;&gt;La Victoria&lt;/font&gt;" style="text;html=1;align=center;verticalAlign=middle;resizable=0;points=[];autosize=1;fontSize=9;horizontal=1;labelPosition=center;verticalLabelPosition=middle;spacing=0;" parent="1" vertex="1">
          <mxGeometry x="1089.5" y="280" width="50" height="20" as="geometry" />
        </mxCell>
        <mxCell id="OS6yYsOtvx3zatkeSCnz-32" value="&lt;font style=&quot;font-size: 8px&quot;&gt;Ate&lt;/font&gt;" style="text;html=1;align=center;verticalAlign=middle;resizable=0;points=[];autosize=1;fontSize=9;" parent="1" vertex="1">
          <mxGeometry x="1189" y="280" width="30" height="20" as="geometry" />
        </mxCell>
        <mxCell id="OS6yYsOtvx3zatkeSCnz-33" value="" style="html=1;shadow=0;dashed=0;shape=mxgraph.bootstrap.rrect;rSize=5;strokeColor=#E6E6E6;html=1;whiteSpace=wrap;fillColor=#E6E6E6;fontColor=#ffffff;verticalAlign=bottom;align=left;spacing=9;spacingBottom=0;fontSize=14;spacingLeft=6;" parent="1" vertex="1">
          <mxGeometry x="1176.5" y="300" width="55" height="55" as="geometry" />
        </mxCell>
        <mxCell id="OS6yYsOtvx3zatkeSCnz-34" value="&lt;font style=&quot;font-size: 8px&quot;&gt;San Luis&lt;/font&gt;" style="text;html=1;align=center;verticalAlign=middle;resizable=0;points=[];autosize=1;fontSize=9;" parent="1" vertex="1">
          <mxGeometry x="1089.5" y="355" width="50" height="20" as="geometry" />
        </mxCell>
        <mxCell id="OS6yYsOtvx3zatkeSCnz-35" value="&lt;font style=&quot;font-size: 8px&quot;&gt;Miraflores&lt;/font&gt;" style="text;html=1;align=center;verticalAlign=middle;resizable=0;points=[];autosize=1;fontSize=9;" parent="1" vertex="1">
          <mxGeometry x="1179" y="355" width="50" height="20" as="geometry" />
        </mxCell>
        <mxCell id="OS6yYsOtvx3zatkeSCnz-36" value="&lt;font style=&quot;font-size: 12px&quot;&gt;Pantalla Principal&lt;/font&gt;" style="text;html=1;align=center;verticalAlign=middle;resizable=0;points=[];autosize=1;fontSize=10;" parent="1" vertex="1">
          <mxGeometry x="1105" y="464.99999999999994" width="110" height="20" as="geometry" />
        </mxCell>
        <mxCell id="OS6yYsOtvx3zatkeSCnz-37" value="" style="endArrow=none;html=1;fontSize=10;entryX=0.979;entryY=0.026;entryDx=0;entryDy=0;entryPerimeter=0;exitX=0.012;exitY=0.992;exitDx=0;exitDy=0;exitPerimeter=0;fontColor=#999999;strokeColor=#999999;" parent="1" source="OS6yYsOtvx3zatkeSCnz-21" target="OS6yYsOtvx3zatkeSCnz-21" edge="1">
          <mxGeometry width="50" height="50" relative="1" as="geometry">
            <mxPoint x="1102.5" y="192.5" as="sourcePoint" />
            <mxPoint x="1132.5" y="162.5" as="targetPoint" />
          </mxGeometry>
        </mxCell>
        <mxCell id="OS6yYsOtvx3zatkeSCnz-38" value="" style="endArrow=none;html=1;fontSize=10;entryX=0.056;entryY=0.03;entryDx=0;entryDy=0;entryPerimeter=0;exitX=0.98;exitY=0.98;exitDx=0;exitDy=0;exitPerimeter=0;strokeColor=#999999;" parent="1" source="OS6yYsOtvx3zatkeSCnz-21" target="OS6yYsOtvx3zatkeSCnz-21" edge="1">
          <mxGeometry width="50" height="50" relative="1" as="geometry">
            <mxPoint x="1105" y="205" as="sourcePoint" />
            <mxPoint x="1158.185" y="151.87" as="targetPoint" />
          </mxGeometry>
        </mxCell>
        <mxCell id="OS6yYsOtvx3zatkeSCnz-39" value="" style="endArrow=none;html=1;fontSize=10;entryX=0.979;entryY=0.026;entryDx=0;entryDy=0;entryPerimeter=0;fontColor=#999999;strokeColor=#999999;exitX=0.03;exitY=0.972;exitDx=0;exitDy=0;exitPerimeter=0;" parent="1" source="OS6yYsOtvx3zatkeSCnz-27" edge="1">
          <mxGeometry width="50" height="50" relative="1" as="geometry">
            <mxPoint x="1180" y="204" as="sourcePoint" />
            <mxPoint x="1229.685" y="150.93" as="targetPoint" />
          </mxGeometry>
        </mxCell>
        <mxCell id="OS6yYsOtvx3zatkeSCnz-40" value="" style="endArrow=none;html=1;fontSize=10;strokeColor=#999999;exitX=0.964;exitY=0.986;exitDx=0;exitDy=0;exitPerimeter=0;entryX=0.037;entryY=0.023;entryDx=0;entryDy=0;entryPerimeter=0;" parent="1" source="OS6yYsOtvx3zatkeSCnz-27" target="OS6yYsOtvx3zatkeSCnz-27" edge="1">
          <mxGeometry width="50" height="50" relative="1" as="geometry">
            <mxPoint x="1230" y="203" as="sourcePoint" />
            <mxPoint x="1178" y="150" as="targetPoint" />
          </mxGeometry>
        </mxCell>
        <mxCell id="OS6yYsOtvx3zatkeSCnz-41" value="" style="endArrow=none;html=1;fontSize=10;entryX=0.979;entryY=0.026;entryDx=0;entryDy=0;entryPerimeter=0;fontColor=#999999;strokeColor=#999999;exitX=0.03;exitY=0.972;exitDx=0;exitDy=0;exitPerimeter=0;" parent="1" edge="1">
          <mxGeometry width="50" height="50" relative="1" as="geometry">
            <mxPoint x="1091.73" y="279.22999999999996" as="sourcePoint" />
            <mxPoint x="1143.2649999999999" y="226.7" as="targetPoint" />
          </mxGeometry>
        </mxCell>
        <mxCell id="OS6yYsOtvx3zatkeSCnz-42" value="" style="endArrow=none;html=1;fontSize=10;strokeColor=#999999;exitX=0.964;exitY=0.986;exitDx=0;exitDy=0;exitPerimeter=0;entryX=0.037;entryY=0.023;entryDx=0;entryDy=0;entryPerimeter=0;" parent="1" edge="1">
          <mxGeometry width="50" height="50" relative="1" as="geometry">
            <mxPoint x="1143.1" y="280" as="sourcePoint" />
            <mxPoint x="1092.1150000000002" y="227.03499999999997" as="targetPoint" />
          </mxGeometry>
        </mxCell>
        <mxCell id="OS6yYsOtvx3zatkeSCnz-43" value="" style="endArrow=none;html=1;fontSize=10;entryX=0.979;entryY=0.026;entryDx=0;entryDy=0;entryPerimeter=0;fontColor=#999999;strokeColor=#999999;exitX=0.03;exitY=0.972;exitDx=0;exitDy=0;exitPerimeter=0;" parent="1" edge="1">
          <mxGeometry width="50" height="50" relative="1" as="geometry">
            <mxPoint x="1178.23" y="278.38" as="sourcePoint" />
            <mxPoint x="1229.7649999999999" y="225.85000000000002" as="targetPoint" />
          </mxGeometry>
        </mxCell>
        <mxCell id="OS6yYsOtvx3zatkeSCnz-44" value="" style="endArrow=none;html=1;fontSize=10;strokeColor=#999999;exitX=0.964;exitY=0.986;exitDx=0;exitDy=0;exitPerimeter=0;entryX=0.037;entryY=0.023;entryDx=0;entryDy=0;entryPerimeter=0;" parent="1" edge="1">
          <mxGeometry width="50" height="50" relative="1" as="geometry">
            <mxPoint x="1229.6" y="279.15000000000003" as="sourcePoint" />
            <mxPoint x="1178.6150000000002" y="226.185" as="targetPoint" />
          </mxGeometry>
        </mxCell>
        <mxCell id="OS6yYsOtvx3zatkeSCnz-45" value="" style="endArrow=none;html=1;fontSize=10;entryX=0.979;entryY=0.026;entryDx=0;entryDy=0;entryPerimeter=0;fontColor=#999999;strokeColor=#999999;exitX=0.03;exitY=0.972;exitDx=0;exitDy=0;exitPerimeter=0;" parent="1" edge="1">
          <mxGeometry width="50" height="50" relative="1" as="geometry">
            <mxPoint x="1091.73" y="354.23" as="sourcePoint" />
            <mxPoint x="1143.2649999999999" y="301.70000000000005" as="targetPoint" />
          </mxGeometry>
        </mxCell>
        <mxCell id="OS6yYsOtvx3zatkeSCnz-46" value="" style="endArrow=none;html=1;fontSize=10;strokeColor=#999999;exitX=0.964;exitY=0.986;exitDx=0;exitDy=0;exitPerimeter=0;entryX=0.037;entryY=0.023;entryDx=0;entryDy=0;entryPerimeter=0;" parent="1" edge="1">
          <mxGeometry width="50" height="50" relative="1" as="geometry">
            <mxPoint x="1143.1" y="355" as="sourcePoint" />
            <mxPoint x="1092.1150000000002" y="302.03499999999997" as="targetPoint" />
          </mxGeometry>
        </mxCell>
        <mxCell id="OS6yYsOtvx3zatkeSCnz-47" value="" style="endArrow=none;html=1;fontSize=10;entryX=0.979;entryY=0.026;entryDx=0;entryDy=0;entryPerimeter=0;fontColor=#999999;strokeColor=#999999;exitX=0.03;exitY=0.972;exitDx=0;exitDy=0;exitPerimeter=0;" parent="1" edge="1">
          <mxGeometry width="50" height="50" relative="1" as="geometry">
            <mxPoint x="1178.23" y="354.23" as="sourcePoint" />
            <mxPoint x="1229.7649999999999" y="301.70000000000005" as="targetPoint" />
          </mxGeometry>
        </mxCell>
        <mxCell id="OS6yYsOtvx3zatkeSCnz-48" value="" style="endArrow=none;html=1;fontSize=10;strokeColor=#999999;exitX=0.964;exitY=0.986;exitDx=0;exitDy=0;exitPerimeter=0;entryX=0.037;entryY=0.023;entryDx=0;entryDy=0;entryPerimeter=0;" parent="1" edge="1">
          <mxGeometry width="50" height="50" relative="1" as="geometry">
            <mxPoint x="1229.6" y="355" as="sourcePoint" />
            <mxPoint x="1178.6150000000002" y="302.03499999999997" as="targetPoint" />
          </mxGeometry>
        </mxCell>
        <mxCell id="OS6yYsOtvx3zatkeSCnz-49" value="" style="dashed=0;outlineConnect=0;html=1;align=center;labelPosition=center;verticalLabelPosition=bottom;verticalAlign=top;shape=mxgraph.webicons.facebook;fillColor=#6294E4;gradientColor=#1A2665;strokeColor=#E6E6E6;fontSize=10;fontColor=#999999;" parent="1" vertex="1">
          <mxGeometry x="418" y="370" width="20" height="20" as="geometry" />
        </mxCell>
        <mxCell id="OS6yYsOtvx3zatkeSCnz-50" value="" style="dashed=0;outlineConnect=0;html=1;align=center;labelPosition=center;verticalLabelPosition=bottom;verticalAlign=top;shape=mxgraph.webicons.instagram;gradientColor=#DFDEDE;strokeColor=#E6E6E6;fontSize=10;fontColor=#999999;" parent="1" vertex="1">
          <mxGeometry x="454.5" y="370" width="20" height="20" as="geometry" />
        </mxCell>
        <mxCell id="OS6yYsOtvx3zatkeSCnz-51" value="" style="dashed=0;outlineConnect=0;html=1;align=center;labelPosition=center;verticalLabelPosition=bottom;verticalAlign=top;shape=mxgraph.webicons.google_plus;fillColor=#F24B46;gradientColor=#AD3832;strokeColor=#E6E6E6;fontSize=10;fontColor=#999999;" parent="1" vertex="1">
          <mxGeometry x="493" y="370" width="20" height="20" as="geometry" />
        </mxCell>
        <mxCell id="OS6yYsOtvx3zatkeSCnz-53" value="" style="verticalLabelPosition=bottom;verticalAlign=top;html=1;shadow=0;dashed=0;strokeWidth=1;shape=mxgraph.android.phone2;fontSize=10;align=center;" parent="1" vertex="1">
          <mxGeometry x="35.5" y="560" width="200" height="390" as="geometry" />
        </mxCell>
        <mxCell id="cEmm-lbTZ2bHwCcyf1ZS-1" value="" style="rounded=1;whiteSpace=wrap;html=1;" parent="1" vertex="1">
          <mxGeometry x="70.75" y="680" width="130" height="25" as="geometry" />
        </mxCell>
        <mxCell id="cEmm-lbTZ2bHwCcyf1ZS-31" style="edgeStyle=elbowEdgeStyle;rounded=0;orthogonalLoop=1;jettySize=auto;elbow=vertical;html=1;strokeColor=#FF0000;fontSize=11;fontColor=#000000;" parent="1" source="cEmm-lbTZ2bHwCcyf1ZS-2" edge="1">
          <mxGeometry relative="1" as="geometry">
            <mxPoint x="1370" y="124" as="targetPoint" />
          </mxGeometry>
        </mxCell>
        <mxCell id="cEmm-lbTZ2bHwCcyf1ZS-2" value="" style="shape=mxgraph.ios7.icons.looking_glass;strokeColor=#999999;fillColor=none;fontColor=#e0e0e0;labelPosition=right;verticalLabelPosition=middle;align=left;verticalAlign=middle;fontSize=6;fontStyle=0;spacingTop=2;strokeWidth=1;" parent="1" vertex="1">
          <mxGeometry x="1226" y="120" width="13" height="13" as="geometry">
            <mxPoint x="-17" y="-3" as="offset" />
          </mxGeometry>
        </mxCell>
        <mxCell id="cEmm-lbTZ2bHwCcyf1ZS-4" value="Cargando" style="text;html=1;align=center;verticalAlign=middle;resizable=0;points=[];autosize=1;fontSize=12;" parent="1" vertex="1">
          <mxGeometry x="805" y="465" width="70" height="20" as="geometry" />
        </mxCell>
        <mxCell id="cEmm-lbTZ2bHwCcyf1ZS-5" style="edgeStyle=elbowEdgeStyle;rounded=0;orthogonalLoop=1;jettySize=auto;html=1;strokeColor=#FF0000;fontColor=#FF0000;" parent="1" source="OS6yYsOtvx3zatkeSCnz-4" edge="1">
          <mxGeometry relative="1" as="geometry">
            <mxPoint x="238" y="770" as="targetPoint" />
            <Array as="points">
              <mxPoint x="300" y="570" />
            </Array>
          </mxGeometry>
        </mxCell>
        <mxCell id="cEmm-lbTZ2bHwCcyf1ZS-6" value="" style="verticalLabelPosition=bottom;verticalAlign=top;html=1;shadow=0;dashed=0;strokeWidth=1;shape=mxgraph.android.phone2;fontSize=10;align=center;" parent="1" vertex="1">
          <mxGeometry x="365.76" y="560" width="200" height="390" as="geometry" />
        </mxCell>
        <mxCell id="cEmm-lbTZ2bHwCcyf1ZS-7" value="" style="verticalLabelPosition=bottom;verticalAlign=top;html=1;shadow=0;dashed=0;strokeWidth=1;shape=mxgraph.android.phone2;fontSize=10;align=center;" parent="1" vertex="1">
          <mxGeometry x="740" y="560" width="200" height="390" as="geometry" />
        </mxCell>
        <mxCell id="cEmm-lbTZ2bHwCcyf1ZS-8" value="" style="verticalLabelPosition=bottom;verticalAlign=top;html=1;shadow=0;dashed=0;strokeWidth=1;shape=mxgraph.android.phone2;fontSize=10;align=center;" parent="1" vertex="1">
          <mxGeometry x="1060" y="560" width="200" height="390" as="geometry" />
        </mxCell>
        <mxCell id="cEmm-lbTZ2bHwCcyf1ZS-9" value="" style="strokeWidth=1;html=1;shadow=0;dashed=0;shape=mxgraph.android.statusBar;align=center;fillColor=#000000;strokeColor=#ffffff;fontColor=#ffffff;fontSize=10;" parent="1" vertex="1">
          <mxGeometry x="45.5" y="600" width="180" height="15.82" as="geometry" />
        </mxCell>
        <mxCell id="cEmm-lbTZ2bHwCcyf1ZS-10" value="" style="strokeWidth=1;html=1;shadow=0;dashed=0;shape=mxgraph.android.statusBar;align=center;fillColor=#000000;strokeColor=#ffffff;fontColor=#ffffff;fontSize=10;" parent="1" vertex="1">
          <mxGeometry x="375.5" y="600" width="180" height="15.82" as="geometry" />
        </mxCell>
        <mxCell id="cEmm-lbTZ2bHwCcyf1ZS-11" value="" style="strokeWidth=1;html=1;shadow=0;dashed=0;shape=mxgraph.android.statusBar;align=center;fillColor=#000000;strokeColor=#ffffff;fontColor=#ffffff;fontSize=10;" parent="1" vertex="1">
          <mxGeometry x="750" y="600" width="180" height="15.82" as="geometry" />
        </mxCell>
        <mxCell id="cEmm-lbTZ2bHwCcyf1ZS-12" value="&lt;font color=&quot;#000000&quot; style=&quot;font-size: 16px;&quot;&gt;Registrarte&lt;/font&gt;" style="text;html=1;strokeColor=none;fillColor=none;align=center;verticalAlign=middle;whiteSpace=wrap;rounded=0;fontColor=#FF0000;fontSize=16;fontStyle=1" parent="1" vertex="1">
          <mxGeometry x="96.75" y="640" width="79" height="20" as="geometry" />
        </mxCell>
        <mxCell id="cEmm-lbTZ2bHwCcyf1ZS-13" value="Nombres" style="text;html=1;strokeColor=none;fillColor=none;align=left;verticalAlign=middle;whiteSpace=wrap;rounded=0;fontSize=11;fontColor=#000000;" parent="1" vertex="1">
          <mxGeometry x="71.25" y="682.5" width="129.5" height="20" as="geometry" />
        </mxCell>
        <mxCell id="cEmm-lbTZ2bHwCcyf1ZS-14" value="" style="rounded=1;whiteSpace=wrap;html=1;" parent="1" vertex="1">
          <mxGeometry x="71.25" y="720" width="130" height="25" as="geometry" />
        </mxCell>
        <mxCell id="cEmm-lbTZ2bHwCcyf1ZS-15" value="Apellidos" style="text;html=1;strokeColor=none;fillColor=none;align=left;verticalAlign=middle;whiteSpace=wrap;rounded=0;fontSize=11;fontColor=#000000;" parent="1" vertex="1">
          <mxGeometry x="71.75" y="722.5" width="129.5" height="20" as="geometry" />
        </mxCell>
        <mxCell id="cEmm-lbTZ2bHwCcyf1ZS-16" value="" style="rounded=1;whiteSpace=wrap;html=1;" parent="1" vertex="1">
          <mxGeometry x="71.75" y="760" width="130" height="25" as="geometry" />
        </mxCell>
        <mxCell id="cEmm-lbTZ2bHwCcyf1ZS-17" value="Correo" style="text;html=1;strokeColor=none;fillColor=none;align=left;verticalAlign=middle;whiteSpace=wrap;rounded=0;fontSize=11;fontColor=#000000;" parent="1" vertex="1">
          <mxGeometry x="72.25" y="762.5" width="129.5" height="20" as="geometry" />
        </mxCell>
        <mxCell id="cEmm-lbTZ2bHwCcyf1ZS-18" value="" style="rounded=1;whiteSpace=wrap;html=1;" parent="1" vertex="1">
          <mxGeometry x="72" y="800" width="130" height="25" as="geometry" />
        </mxCell>
        <mxCell id="cEmm-lbTZ2bHwCcyf1ZS-19" value="Password" style="text;html=1;strokeColor=none;fillColor=none;align=left;verticalAlign=middle;whiteSpace=wrap;rounded=0;fontSize=11;fontColor=#000000;" parent="1" vertex="1">
          <mxGeometry x="72.5" y="802.5" width="129.5" height="20" as="geometry" />
        </mxCell>
        <mxCell id="cEmm-lbTZ2bHwCcyf1ZS-20" value="" style="rounded=1;whiteSpace=wrap;html=1;" parent="1" vertex="1">
          <mxGeometry x="399.5" y="250" width="130" height="23" as="geometry" />
        </mxCell>
        <mxCell id="cEmm-lbTZ2bHwCcyf1ZS-21" value="Email" style="text;html=1;strokeColor=none;fillColor=none;align=left;verticalAlign=middle;whiteSpace=wrap;rounded=0;fontSize=11;fontColor=#000000;" parent="1" vertex="1">
          <mxGeometry x="420" y="250" width="110.5" height="22" as="geometry" />
        </mxCell>
        <mxCell id="cEmm-lbTZ2bHwCcyf1ZS-22" value="" style="rounded=1;whiteSpace=wrap;html=1;" parent="1" vertex="1">
          <mxGeometry x="400.5" y="285" width="130" height="23" as="geometry" />
        </mxCell>
        <mxCell id="cEmm-lbTZ2bHwCcyf1ZS-23" value="Password" style="text;html=1;strokeColor=none;fillColor=none;align=left;verticalAlign=middle;whiteSpace=wrap;rounded=0;fontSize=11;fontColor=#000000;" parent="1" vertex="1">
          <mxGeometry x="420" y="285" width="110.5" height="22.5" as="geometry" />
        </mxCell>
        <mxCell id="cEmm-lbTZ2bHwCcyf1ZS-34" style="edgeStyle=elbowEdgeStyle;rounded=0;orthogonalLoop=1;jettySize=auto;html=1;strokeColor=#FF0000;fontSize=11;fontColor=#000000;endArrow=none;endFill=0;" parent="1" source="cEmm-lbTZ2bHwCcyf1ZS-24" edge="1">
          <mxGeometry relative="1" as="geometry">
            <mxPoint x="680" y="500" as="targetPoint" />
            <Array as="points">
              <mxPoint x="330" y="580" />
              <mxPoint x="690" y="470" />
              <mxPoint x="330" y="610" />
            </Array>
          </mxGeometry>
        </mxCell>
        <mxCell id="cEmm-lbTZ2bHwCcyf1ZS-24" value="Registrar" style="rounded=1;html=1;shadow=0;dashed=0;whiteSpace=wrap;fontSize=10;fillColor=#666666;align=center;strokeColor=#4D4D4D;fontColor=#ffffff;" parent="1" vertex="1">
          <mxGeometry x="70.5" y="850" width="130" height="30" as="geometry" />
        </mxCell>
        <mxCell id="cEmm-lbTZ2bHwCcyf1ZS-27" value="" style="verticalLabelPosition=bottom;verticalAlign=top;html=1;shadow=0;dashed=0;strokeWidth=1;shape=mxgraph.android.phone2;fontSize=10;" parent="1" vertex="1">
          <mxGeometry x="1370" y="49.99999999999999" width="200" height="390" as="geometry" />
        </mxCell>
        <mxCell id="cEmm-lbTZ2bHwCcyf1ZS-30" value="" style="strokeWidth=1;html=1;shadow=0;dashed=0;shape=mxgraph.android.statusBar;align=center;fillColor=#000000;strokeColor=#ffffff;fontColor=#ffffff;fontSize=10;" parent="1" vertex="1">
          <mxGeometry x="1380" y="90" width="180" height="15.82" as="geometry" />
        </mxCell>
        <mxCell id="cEmm-lbTZ2bHwCcyf1ZS-32" value="" style="strokeWidth=1;html=1;shadow=0;dashed=0;shape=mxgraph.android.statusBar;align=center;fillColor=#000000;strokeColor=#ffffff;fontColor=#ffffff;fontSize=10;" parent="1" vertex="1">
          <mxGeometry x="1070" y="600" width="180" height="15.82" as="geometry" />
        </mxCell>
        <mxCell id="cEmm-lbTZ2bHwCcyf1ZS-35" value="" style="endArrow=none;html=1;strokeColor=#FF0000;fontSize=11;fontColor=#000000;endFill=0;endSize=9;spacing=2;" parent="1" edge="1">
          <mxGeometry width="50" height="50" relative="1" as="geometry">
            <mxPoint x="680" y="500" as="sourcePoint" />
            <mxPoint x="680" y="349" as="targetPoint" />
          </mxGeometry>
        </mxCell>
        <mxCell id="cEmm-lbTZ2bHwCcyf1ZS-37" value="" style="endArrow=classic;html=1;strokeColor=#FF0000;fontSize=11;fontColor=#000000;entryX=0.002;entryY=0.767;entryDx=0;entryDy=0;entryPerimeter=0;" parent="1" target="OS6yYsOtvx3zatkeSCnz-18" edge="1">
          <mxGeometry width="50" height="50" relative="1" as="geometry">
            <mxPoint x="680" y="349" as="sourcePoint" />
            <mxPoint x="730" y="303.44" as="targetPoint" />
            <Array as="points">
              <mxPoint x="690" y="349" />
            </Array>
          </mxGeometry>
        </mxCell>
        <mxCell id="cEmm-lbTZ2bHwCcyf1ZS-38" value="Registrar Usuario" style="text;html=1;align=center;verticalAlign=middle;resizable=0;points=[];autosize=1;fontSize=12;" parent="1" vertex="1">
          <mxGeometry x="82.25" y="970" width="110" height="20" as="geometry" />
        </mxCell>
        <mxCell id="cEmm-lbTZ2bHwCcyf1ZS-40" value="" style="verticalLabelPosition=bottom;verticalAlign=top;html=1;shadow=0;dashed=0;strokeWidth=1;shape=mxgraph.android.phone2;fontSize=10;" parent="1" vertex="1">
          <mxGeometry x="1370" y="560" width="200" height="390" as="geometry" />
        </mxCell>
        <mxCell id="cEmm-lbTZ2bHwCcyf1ZS-41" value="Ceviche de barrio" style="text;html=1;align=center;verticalAlign=middle;resizable=0;points=[];autosize=1;fontSize=9;" parent="cEmm-lbTZ2bHwCcyf1ZS-40" vertex="1">
          <mxGeometry x="55" y="330" width="90" height="20" as="geometry" />
        </mxCell>
        <mxCell id="cEmm-lbTZ2bHwCcyf1ZS-45" value="" style="strokeWidth=1;html=1;shadow=0;dashed=0;shape=mxgraph.android.statusBar;align=center;fillColor=#000000;strokeColor=#ffffff;fontColor=#ffffff;fontSize=10;" parent="1" vertex="1">
          <mxGeometry x="1380" y="600" width="180" height="15.82" as="geometry" />
        </mxCell>
        <mxCell id="0dnD4N0eGWZ0kZlYCPQi-1" value="" style="html=1;shadow=0;dashed=0;shape=mxgraph.bootstrap.rrect;rSize=5;strokeColor=#E6E6E6;html=1;whiteSpace=wrap;fillColor=#E6E6E6;fontColor=#ffffff;verticalAlign=bottom;align=left;spacing=9;spacingBottom=0;fontSize=14;spacingLeft=6;" parent="1" vertex="1">
          <mxGeometry x="433.63" y="133" width="61.75" height="60" as="geometry" />
        </mxCell>
        <mxCell id="0dnD4N0eGWZ0kZlYCPQi-2" value="" style="endArrow=none;html=1;fontSize=10;entryX=0.979;entryY=0.026;entryDx=0;entryDy=0;entryPerimeter=0;fontColor=#999999;strokeColor=#999999;exitX=0.012;exitY=0.969;exitDx=0;exitDy=0;exitPerimeter=0;" parent="1" source="0dnD4N0eGWZ0kZlYCPQi-1" target="0dnD4N0eGWZ0kZlYCPQi-1" edge="1">
          <mxGeometry width="50" height="50" relative="1" as="geometry">
            <mxPoint x="439" y="215" as="sourcePoint" />
            <mxPoint x="480.75" y="172.5" as="targetPoint" />
          </mxGeometry>
        </mxCell>
        <mxCell id="0dnD4N0eGWZ0kZlYCPQi-3" value="" style="endArrow=none;html=1;fontSize=10;exitX=0.98;exitY=0.98;exitDx=0;exitDy=0;exitPerimeter=0;strokeColor=#999999;entryX=0.018;entryY=0.02;entryDx=0;entryDy=0;entryPerimeter=0;" parent="1" source="0dnD4N0eGWZ0kZlYCPQi-1" target="0dnD4N0eGWZ0kZlYCPQi-1" edge="1">
          <mxGeometry width="50" height="50" relative="1" as="geometry">
            <mxPoint x="453.25" y="215" as="sourcePoint" />
            <mxPoint x="441" y="162" as="targetPoint" />
          </mxGeometry>
        </mxCell>
        <mxCell id="0dnD4N0eGWZ0kZlYCPQi-4" value="" style="html=1;shadow=0;dashed=0;shape=mxgraph.bootstrap.rrect;rSize=5;strokeColor=#E6E6E6;html=1;whiteSpace=wrap;fillColor=#E6E6E6;fontColor=#ffffff;verticalAlign=bottom;align=left;spacing=9;spacingBottom=0;fontSize=14;spacingLeft=6;" parent="1" vertex="1">
          <mxGeometry x="102.25" y="160" width="70" height="75" as="geometry" />
        </mxCell>
        <mxCell id="0dnD4N0eGWZ0kZlYCPQi-5" value="" style="endArrow=none;html=1;fontSize=10;entryX=0.979;entryY=0.026;entryDx=0;entryDy=0;entryPerimeter=0;fontColor=#999999;strokeColor=#999999;exitX=0.012;exitY=0.969;exitDx=0;exitDy=0;exitPerimeter=0;" parent="1" source="0dnD4N0eGWZ0kZlYCPQi-4" target="0dnD4N0eGWZ0kZlYCPQi-4" edge="1">
          <mxGeometry width="50" height="50" relative="1" as="geometry">
            <mxPoint x="184.12" y="262.5" as="sourcePoint" />
            <mxPoint x="225.87" y="220" as="targetPoint" />
          </mxGeometry>
        </mxCell>
        <mxCell id="0dnD4N0eGWZ0kZlYCPQi-6" value="" style="endArrow=none;html=1;fontSize=10;exitX=0.98;exitY=0.98;exitDx=0;exitDy=0;exitPerimeter=0;strokeColor=#999999;entryX=0.018;entryY=0.02;entryDx=0;entryDy=0;entryPerimeter=0;" parent="1" source="0dnD4N0eGWZ0kZlYCPQi-4" target="0dnD4N0eGWZ0kZlYCPQi-4" edge="1">
          <mxGeometry width="50" height="50" relative="1" as="geometry">
            <mxPoint x="198.37" y="262.5" as="sourcePoint" />
            <mxPoint x="186.12" y="209.5" as="targetPoint" />
          </mxGeometry>
        </mxCell>
        <mxCell id="0dnD4N0eGWZ0kZlYCPQi-7" value="Bienvenido" style="rounded=1;html=1;shadow=0;dashed=0;whiteSpace=wrap;fontSize=10;fillColor=#808080;align=center;strokeColor=#4D4D4D;fontColor=#ffffff;" parent="1" vertex="1">
          <mxGeometry x="93.88" y="317" width="83.25" height="21" as="geometry" />
        </mxCell>
        <mxCell id="0dnD4N0eGWZ0kZlYCPQi-8" value="" style="html=1;verticalLabelPosition=bottom;labelBackgroundColor=#ffffff;verticalAlign=top;shadow=0;dashed=0;strokeWidth=2;shape=mxgraph.ios7.misc.options;fillColor=#999999;fontSize=12;align=center;" parent="1" vertex="1">
          <mxGeometry x="1390" y="120" width="13" height="13" as="geometry" />
        </mxCell>
        <mxCell id="cLxHmEh8F8HtvEnrHCGI-1" value="&lt;b&gt;&lt;font style=&quot;font-size: 16px&quot;&gt;CEVICHERIAS&lt;/font&gt;&lt;/b&gt;" style="text;html=1;strokeColor=none;fillColor=none;align=center;verticalAlign=middle;whiteSpace=wrap;rounded=0;" parent="1" vertex="1">
          <mxGeometry x="75" y="255" width="125.75" height="20" as="geometry" />
        </mxCell>
        <mxCell id="cLxHmEh8F8HtvEnrHCGI-2" value="PERUANAS" style="text;html=1;strokeColor=none;fillColor=none;align=center;verticalAlign=middle;whiteSpace=wrap;rounded=0;fontStyle=1" parent="1" vertex="1">
          <mxGeometry x="97.88" y="277.5" width="77.25" height="20" as="geometry" />
        </mxCell>
        <mxCell id="cLxHmEh8F8HtvEnrHCGI-5" value="&lt;b&gt;&lt;font style=&quot;font-size: 16px&quot;&gt;CEVICHERIAS&lt;/font&gt;&lt;/b&gt;" style="text;html=1;strokeColor=none;fillColor=none;align=center;verticalAlign=middle;whiteSpace=wrap;rounded=0;" parent="1" vertex="1">
          <mxGeometry x="401" y="200" width="125.75" height="20" as="geometry" />
        </mxCell>
        <mxCell id="cLxHmEh8F8HtvEnrHCGI-6" value="PERUANAS" style="text;html=1;strokeColor=none;fillColor=none;align=center;verticalAlign=middle;whiteSpace=wrap;rounded=0;fontStyle=1" parent="1" vertex="1">
          <mxGeometry x="427.14" y="220" width="77.25" height="20" as="geometry" />
        </mxCell>
        <mxCell id="cLxHmEh8F8HtvEnrHCGI-7" value="" style="strokeWidth=1;html=1;shadow=0;dashed=0;shape=mxgraph.android.statusBar;align=center;fillColor=#000000;strokeColor=#ffffff;fontColor=#ffffff;fontSize=10;" parent="1" vertex="1">
          <mxGeometry x="750" y="90" width="180" height="15.82" as="geometry" />
        </mxCell>
        <mxCell id="MQ66HXEbtl4e7zv72a0e-1" value="" style="verticalLabelPosition=bottom;verticalAlign=top;html=1;shadow=0;dashed=0;strokeWidth=1;shape=mxgraph.android.phone2;" parent="1" vertex="1">
          <mxGeometry x="874" y="-429" width="200" height="390" as="geometry" />
        </mxCell>
        <mxCell id="MQ66HXEbtl4e7zv72a0e-2" value="" style="verticalLabelPosition=bottom;verticalAlign=top;html=1;shadow=0;dashed=0;strokeWidth=1;shape=mxgraph.android.phone2;fontSize=10;" parent="1" vertex="1">
          <mxGeometry x="1145" y="-430" width="200" height="392" as="geometry" />
        </mxCell>
        <mxCell id="MQ66HXEbtl4e7zv72a0e-5" value="" style="strokeWidth=1;html=1;shadow=0;dashed=0;shape=mxgraph.android.statusBar;align=center;fillColor=#000000;strokeColor=#ffffff;fontColor=#ffffff;fontSize=10;" parent="1" vertex="1">
          <mxGeometry x="1155" y="-388" width="180" height="15.82" as="geometry" />
        </mxCell>
        <mxCell id="MQ66HXEbtl4e7zv72a0e-7" value="" style="html=1;verticalLabelPosition=bottom;labelBackgroundColor=#ffffff;verticalAlign=top;shadow=0;dashed=0;strokeWidth=2;shape=mxgraph.ios7.misc.options;fillColor=#999999;fontSize=12;align=center;" parent="1" vertex="1">
          <mxGeometry x="1162" y="-358" width="13" height="13" as="geometry" />
        </mxCell>
        <mxCell id="MQ66HXEbtl4e7zv72a0e-30" value="" style="shape=mxgraph.ios7.icons.looking_glass;strokeColor=#999999;fillColor=none;fontColor=#e0e0e0;labelPosition=right;verticalLabelPosition=middle;align=left;verticalAlign=middle;fontSize=6;fontStyle=0;spacingTop=2;strokeWidth=1;" parent="1" vertex="1">
          <mxGeometry x="1311" y="-358" width="13" height="13" as="geometry">
            <mxPoint x="-17" y="-3" as="offset" />
          </mxGeometry>
        </mxCell>
        <mxCell id="MQ66HXEbtl4e7zv72a0e-31" value="" style="shape=rect;fillColor=#e0e0e0;strokeColor=none;fontSize=12;align=center;" parent="1" vertex="1">
          <mxGeometry x="1454" y="-363.5" width="130" height="20" as="geometry" />
        </mxCell>
        <mxCell id="MQ66HXEbtl4e7zv72a0e-32" value="" style="html=1;strokeWidth=1;shadow=0;dashed=0;shape=mxgraph.ios7ui.marginRect;rx=3;ry=3;rectMargin=5;strokeColor=none;" parent="MQ66HXEbtl4e7zv72a0e-31" vertex="1">
          <mxGeometry width="130" height="20" as="geometry" />
        </mxCell>
        <mxCell id="MQ66HXEbtl4e7zv72a0e-33" value="" style="verticalLabelPosition=bottom;verticalAlign=top;html=1;shadow=0;dashed=0;strokeWidth=1;shape=mxgraph.android.phone2;fontSize=10;" parent="1" vertex="1">
          <mxGeometry x="1412" y="-430" width="200" height="390" as="geometry" />
        </mxCell>
        <mxCell id="MQ66HXEbtl4e7zv72a0e-35" value="" style="strokeWidth=1;html=1;shadow=0;dashed=0;shape=mxgraph.android.statusBar;align=center;fillColor=#000000;strokeColor=#ffffff;fontColor=#ffffff;fontSize=10;" parent="1" vertex="1">
          <mxGeometry x="1422" y="-390" width="180" height="15.82" as="geometry" />
        </mxCell>
        <mxCell id="MQ66HXEbtl4e7zv72a0e-36" value="" style="html=1;verticalLabelPosition=bottom;labelBackgroundColor=#ffffff;verticalAlign=top;shadow=0;dashed=0;strokeWidth=2;shape=mxgraph.ios7.misc.options;fillColor=#999999;fontSize=12;align=center;" parent="1" vertex="1">
          <mxGeometry x="1432" y="-360" width="13" height="13" as="geometry" />
        </mxCell>
        <mxCell id="MQ66HXEbtl4e7zv72a0e-59" value="" style="shape=image;verticalLabelPosition=bottom;labelBackgroundColor=#ffffff;verticalAlign=top;aspect=fixed;imageAspect=0;image=data:image/png,iVBORw0KGgoAAAANSUhEUgAAAQAAAAEACAYAAABccqhmAAAABHNCSVQICAgIfAhkiAAAAAlwSFlzAAAOxAAADsQBlSsOGwAAFvNJREFUeJzt3XmUX2V9x/H3DMmEIQnZTAIECAYSQGUrENEqJCx1xQqxTSpatAgVqwhWkKptD1arCFrxIIuoKFjgiK27VIQARwgohn1JIAQhYASCZDJJyDYz/eM7wwyThMz93uc+z10+r3Oek3AON/d777P87n3us7QgVbUDMAPYB9gb2BMYA4wCRg9KOwDrgE5gde+fA9MfgMW9aRGwMt5lSEotqQOQIRkPzALeDLwGq/S7Aq0Fne8ZrDF4GLgdmA8sK+hckpAagHIaDRwOzAaOBA6guMo+VEuwhuCm3vRM2nBE6mVH4CTgZmAD0FPi1A3cA5wFTCngXog0wnbA24CrgbWkr9ietAm4Hng/MDLs7RGpp6nA+cBy0lfgkKkT+C5wSLA7JVIjM4DLKf8jft7UDVwHvCnMbROptv2Ba7DH5dSVM3a6CTg6/y0UqZ59gZ8AXaSviKnTHdhXDZHaGwl8CVhP+opXptQNXAXs7L+1IuV2PPAE6StbmVMHcAb2FUSkFvYEfkn6ylWldC/qKJQa+BCwhvQVqi91Y5/k/ogN6b0LeAgbzruScnVGdgHnAcMy33XJTUOB8xkFXAKcEPm8PcDT9E/g6UuPACuwxqh7G//GSGAssBc2mWhv+icW7UH8x/PbgXnAk5HPK+KyHzZzLtYv5VLgW8B7Kb4TbQzwLuBrwH3E+4qxAji24GsTye1kih+624V9Qz8Z+0VOaSIwF/hfbFpxkdfdjY2SHB7lykQyaAUuotgKsBj4DDZcuIzGA6cCC7DKWtR9mI9NkBIphRHAtRT3a/8D4LBoVxPGdOACiusAvQuYHO1qRLZiR+wXKXQB3whcgY0YrLLJwLnAKsLfoyXYJ1aRJCZjv0ShK/5lwLSI1xHDeOAcbKBPyPu1HDgo4nWIAPYevoSwhXkBcGDMi0hgF2zyU8g+gg5slSSRKCZiHXKhCvBz2IChJo29OJqwn0o70JOARDAKuJNwBfc7wISoV1AebcBnCTcxajnqE5ACtWFLXIX6xZoXN/zSmgk8Tpj7ugR9HZACtGDr84UopHdhw2yl31hsMFGo+6txAhLUf5G/YHYDF2LjBmTLTiPMiML5aMSgBDKP/AVyE/Dh2IFX1CxsZmLee35+5LilhqaT/9v1i8Cc2IFX3AHkXxm5G00gkhy2B+4mXyFcif2iSXbTgEfJd/9XALvHDlzq4WLyFb5nqP/AnqJNIn8jvAAtKiIZzSVfoVsFHBw96nqaRP4ngfOiRy2VNRl4AX9hW4/Wuw9tGvn6BLrQGoMyRFeQr6DNjR9yIxxAvq8D96LVhmUbjiDfRJXT4ofcKLPIN07gjOgRS2UMAx7AX7iuiB9yI30Mfx51oM1HZCvOxF+wHkZbYMeUZ9jwVQnilZLbFVsv31Og1mIrAUs8Y7HVkD351Q0cGT9kKbNL8P+inJwgXrFZhN6pxHckiFdKagr+jqUfJ4hX+n0Wf8OtT7UC2CYXngK0Gg0zTa0N/8pCN8cPV8pmEv6lq89OEK9s7mj8n241OKjhvoiv4DyE5puXyTX48vG6FMFKOYzDN9W3G5idIF7Zul3w5+UhCeKVEjgd36/GL1IEK9t0Dr78/F6KYCW9hfgKzBtTBCvbNB7fDkSdaBBX47wWX+W/MUWwMmTn4svX96cIVtL5Er6CohFk5TYZ31ed61MEK2m0AsvIXkhuSxGsZHYB2fN2EzYgTBrgKHy//trIoxqm4xsX8KkUwUp83yZ74egA2lMEKy4LyJ7H9ySJVKJ7kuyF49tJIhWvU8mex91oW7Ham47v8X9WgljFbzy+CV56zevVmjqAgnh68Z8AbgkdiBTqz/gGbGmEZy81AP2uxX4dpFp+4DhGn3lrrAV4luyPhW9NEazkNhFbpTlrfu+WIlgp3v5kLwzr0TDRKruX7Hl+YpJIS6aOrwB/6TjmTmxkmVTTfMcxmutBPRuAvR3HeAqQlMdNjmP2CR6FlMJ1ZH8cVK9wtY3BhvlmyfM/JYlUCudZRnpskkglpCUo3zOr2yvACLIv4PksthedVNsixzGNfw2oWwMwnewbQ3oKjpTPYscxnv6iWqlbA+DJUE/BkfJRA+BQtwZgquMYNQD14MnHPUIHUTV1awBGO45ZEjwKScGTj57yUitqANQBWBeefFQDkDqAwDwZ2hk8CklhDTYnIAs1AKkDCEwNQLOtzvj/qwFIHUBgoxzHqAGoj6x56SkvtVK3BkBPAM2WNS/1BJA6gMC2dxzzYvAoJJV1Gf//xi8AW7cGYK3jGK0DUB9Z87LxU8Dr1gB4Hucb/xhYI1nzsvGvf2oA1ADUiRqAjNQAqAGoixZgh4zHqAFIHUBgWb8DgxqAuhhF9vLsKS+1UrcGwNOivyp4FJKCJx/1BJA6gMA6HMfMCB6FpODJR095qZW6NQBLHcc0fk54TXjy8bHgUVRM3RoALQrRXFoMxqFuDcDjwIaMx+gVoB7UAAgAD5N9ddidkkQqIS0jW553kf2zYe3U7QkAfK36IcGjkJh2AqZkPOYpfEPHa0UNgNFusdV2JDYQKAutBk09G4CHHceoAag2T/55yolUwDSy9wF0oQFBVfYY2fN8TpJIJYrHyV4g3pMkUslrD3wN/oQEsZZOHV8BAG50HHNM8CgkBk++3Qs8HzqQKqprA+DZ7nsO0BY6ECncex3HaDv4mtsJ6Cb7o+HxKYIVt6nY43zWfH5HimAlrgfJXjB+lCRS8foM2fN4I5oC3gjnk71wrEedQ1WyiOx5fHOKQCW+A8leOHqAj6YIVjI7DF/+npQiWEnjPrIXkEeA7VIEK5n8gOx5uxbYMUWwksZZ+H4lTkgRrAzZPsAmsufr1SmClXSm4CsoD5B9bLnEcwW+hv3tKYKVtK7HV1j0SbCcpmE9+Vnzczl6tWuk9+FrABamCFa26TJ8+fmVFMFKem1kXyyiL30gfrjyCg7A9+u/AZszIA31cXwNwDPAuATxyuZagAX48vHyBPFKibRjldlTeC5OEK9s7iR8+bcJrfsowNn4C9ChCeKVfhOA5/Dl3zUJ4pUSGg38GV8hWggMix+y9PoOvnzrBvZPEK+U1Dn4ClIPcF6CeAXm4s+znySIV0psNPA0vsLUBbwzfsiNthe2fZcnv9YD+8YPWcouzy/KCmC3+CE30gjgLvx5dW78kKUqfo2/YN2K+gNiuBB/Hj0BjIwfslTFDGAd/gJ2WfyQG+XD+FZ06ksaxi3b9B/4C1gP8Pn4ITfCHHwTuPrSL+OHLFXUDiwhXyPwsehR19ss4EX8+bEW6zgUGZKZWG+xt8B1AfOiR11PBwIrydcgfyh61FJ5p5Ov0K3HviyI38H4h2r3pe9Hj1pq40fkK3xd6HXA62hgFfnu/yJgVOzApT7G4dtObHBSx2A2c8n3NabvvV/DfSW3vP0BfekyNE5gKE7Dt6nH4HRy7MClvk4i3/fnvnQrGjG4NSOB75H/HvcAF0WOXRrg04QpnCvQFlSD7Qc8RJj7ey313dtSEruAMIW0C5tFqFcC+0S3hjD3dT42V0CkEC3AVYQprD3A72nuoiK7Az8m3L28C23uIREMx7+k+JbSJmx5saasMTgcW4VpNeHu4RJgcsyLkGYbSdhGoAcb8PKBiNeQwmzCvev3pcVoZV9JYDhhXwf60kJs1lqddiB6A/ALwnxJGZjuBCZGvA6Rl2khXMfg4PQA8F6qvWvNbOBGirk/16NRflISnyb8r1tfegTbmnxCtKvJpx2bCHUbxdyPHmxF37ZYFyQyFCcRZsTg1tJ6bG7CcZSv8LcARwDfxr9W31DT19B3fimpmYSZO7CttAK4FHgP6Z4MRgJvxcYz/IHir3kVmmItFTCOsN+3t5W6gLuBr2KrE+9U0HWNxRbm+BzwG4p92hmc7gamF3RdsgV16oFO5XRsBdoUj+srsb6Dxb3pEeypoXNQWoO9s48elMZiK+jsPSCl+s5+CXAGNjtQpFJmAo8R75eyTukFtKCK1EA7ttBo3vntTUndwJVoZJ/UzAzy7TvQhPQA9jVBpLbm4t+GrK6pEzgTG10pUnujsQ1JvbsS1yWtwzr5tEiKNNJobGZc3pVvq5bWYAN6puS/hSLV1w58HFhG+spZZOoAvghMCnPbROqlDXg/NtElzzZYZUsLsXERTVnzQCS3KcBZwP2kr8CetAz4EvDa0DdGpGkOBM4HHqS4WYch0pPYhKCj0ISdStNQ4PLaGZtnfxRwJGlXw3kOuAlbjHM+8GjCWCQgNQDVMQ04HNiX/nH70wg7B6EL+3VfPCAtAO7DfvmlZtQAVNsw4NX0NwZjsE+Oo3j5pJ+R2LbbndginZ0D/r4KeAKr7EvQZBwREREREREREREREREREREREREREREREZHS0mSg6tkOm/QztvfPEdgqu8OxmYHDB6U2bNLQJmDjFtKGQX9fhe041NH731JjagDSG4GtCtSXdgV2ASZilbyvovf9fRTx8m0t/Y3BygHpeWzJ8z8CT/X+/WlsdqFUiBqA4rUAU4F96J/HvztW0adgu/7WJR866G8MltG/b+EibOu0jelCky2pS8Erg+2A1wCvo7+y74PtFNSeMK6y2AgsxRqDRVjD8BBwD7YDsSSgBsBvGnBob5oJHIQ9nks2G7AFUe8ckB7CVieSgqkBGJo24A3Y2nwzsUo/IWlE9bYauBv4HXALcDO2gpEEpgZg6/YHju5Nh2PLakkaG7HG4IbedAf2VUNyUgPQbwJwLHAMthKvtq0ur07syeAG4KfA42nDqa6mNwCvAo4D/gaYhXatraK+HYmuBX6IdTTKEDWxARhY6Wdjg2SkHnqAu7DG4FrUGEiv7YB3A9dh75Opd9ZRKj51Y/0Gp6CvM421K3AONlotdYFUSpc6gG9gHbtSc63A24Afo197pc3TbcDfA9sjteoDGAF8EDgTG6RTJ+uwX7FObLJO3599f1+NNXab6J/0M/DvXVjDOBzr8xg26O/DsM+cO2I7CW3pz7o9Rj+PPRVcAPw5cSzJ1KEBGAX8I/DP2IaaVbIO+4S1FBs//0xv+tOgP8swCGZ7YCfs8+jgP3fGGt1pWINRJauBS4CvAssTxxJdlRuAccBpwMco96i8jdi49wewCTFLe/98DKv0PelCK8QkrCHYszdNw+ZIvBbYIWFc27IOuBw4F9srsRGq2AC0AR8FPgOMTxzLYMuxnXTvw8a33wc8jObVg72C7IV1xO034M9plKscrgcuBL4AvJA4FhlkHvYLmrojqQf7ZV8IfL03rt0LvO46mwC8E/hPbHTfGtLnbQ/WR/AJwm6/Lk5vAn5L+gp/K/Bv2KQgzQ0oxnBswtUZwC9I3yAsBeYWesWyVeOAb2GDOlJk/pPAN4E52Go8Et8IbH7GV7B+lFRl4XqsT0MimYf1gsfO6HuAf8E6rqR8dgNOBW7CPnPGLBtrgLPR8PFCTQV+SdyMfRD4d2wFH6mOnbEvQbdiYx1ilZd7gddHuL7GeR824CVGJj4LfBnriZbq2w04C3iUOOVnE/A5bJ6J5DQauJLiM60be3Sch3p366oFW8TlWuyTXtFl6jbsqVWcZgJLKDaTXsA6kfaOdE1SDjsBn8YG9hRdvv420jXVyhkU20r/CfgUNpZdmms48AFsUFaRDcE30ZPlkLRhwy6LyojHgY+gGV/ycq3YJ93fU1zZuxUbDi1bMRl7byri5j+JtfT6TCPb8hZs9aAiyuEfgAOjXUmFHEQx72Md2LueNuCQLFqAE7FdjEKXyU7saUN6HYPdlJA3eSNwEXrkknzasclloT9Bd2HjFBrv3cCLhL25vwH2jXkRUnuTgP8m/NPAv8a8iLJ5HzYdNtTNXIVNBy7TFFKpl3dg/UkhG4Hzol5BSZxK2CGa16FBFxLHjsDFhC2/l2JfIhrhFMLN3OrE1vsTie0Iwj4NXBI3/DTmEG6m1gPoXV/SmkDYCWpfiBt+XEdh66uFuFHfpdzryElztGDTxEMtNX9G3PDjOBTrpMt7c9aiR34pp8PpX8w1T+rC9ieojanYFNu8N+ZZ4LDIsYtksRu26Gvesr4Be2KuvHbCDKt8FFs5VqTsxgDzyV/mnwP2iBt6eFeR/0bcDkyMHbhIDm2EGTh0NxXu6/ok+W/Az9A4fqmu88hfB66JHnUAR5G/V/Q6bOVXkSr7CvkbgU9GjzqHCeTvDb0BzdmX+riQfPVhPfAX0aN2+h/yXewtVPi9R2QLWrBVgfLUi4epwOvwP5DvIu+kervIigxFC/k7Bi+KHnUGU8k32OcpYJfoUYvEMwJYgL+OdANvjR71EP0c/4WtAQ6JH7JIdJOwpcG8dWUpJXwVeA/5WjUtnSxNsj/5npa/GD/krRuNPb57L+Zz8UMWSe6v8U+LXw+8Ln7IW5ZnsMMdaAslaa6L8dedmxLEu5ldsBl6ngtYi3bkkWYbCTyGvxE4Jn7IL/cN/MGfniBekbI5HP/yYnckiPcle+DfvutmtHinSJ+v4v8hfVeCeAH4zhADHJxWAa9OEK9IWW2Pf3/Ce0jwYzoD/2SfU2IHK1IBM/HXqbmxg73aGeiC2IGKVMjX8dWrRUT8mrYf/k6LWbGCFKmgyfi3yTsxVpCXOgP8VawARSrs8/jq18IYwY3CN4SxG431FxmKMcAKfI3AwUUHd7IzsB8WHZhIjZyJr54VvrvQ7xxBbUI7+Ihk0Y5vfk0HNrqwEAc6AuoBriwqIJEa+yd89e1DRQXkHfb7hqICEqmx0fj6235bRDDtwEpHMPcUEYxIQ3hnC+6f98SD9yo/BuudzKoRWx6LFORS53FzgkaB79v/KrTAp0het5O97gUfE+Dpkbw4dBAiDXQi2eteNwEX2D3IEUAPGvgjEkI7vuHBJ+c56cA+gHc6jn8K+H2eAEQEgBfxDaP31NstuoPsrc83Qp1cRFyvAasJsL3ejvhm/v1V3hOLyEtehY2ozVoPZ3tP2PcKMJPNPwluyypsyS8RCWMFvrU0Xu894cAGIKtfARu8JxaRLfq54xhP/QX6GwBPC3KL96QislWeeuV+AuiznOzvHZXZx1ykQtqwLwJZ6+Ou3hPu5jjZamCY94Qi8op+Q/Y6eZznRK34du35HdZbKSLh3e44xrX7Visw3XFclHXJRBrKU7/28pyo1XngYs/JRGRIPPXL80OuBkCkhB7BJvpk4W4AJjuOe8RzMhEZkrXA0xmPmeg5USswNuMxm4BnPScTkSFbnvH/H4ZjXY5WYFzGY57HPjuISHE8P7JZ67LrCeC5rCcRkcw89Szzcn6t2CIEWRS2HrmIvGSU45jVnhPdT7YRRxuB8Z4TiciQPUq2etmNY12AVuCPGY8ZBnww64lEZMiOJPvn+ReAdZ6TfYvs447X4PzuKCKvaCTwGNnrpGtvjlbgRsdxO2AbgaoREAlnPHAVMM1xrKceA9ZzuJ7sLU7fk8AnUJ+ASB7twN9hr+OeetgDvNlz4pbeP/8PeIs7fBsctAwbIyAiQzcamEq+hT2fBXYm+/Dhl+b0f5d8DcAw4NW9SUTi+j6Oyg/9TwAt2BTEg0JFJCJRdAB74nz67lsTsAc4O1REIhLNl8nx6t0y6L9/RsCdRkSkUEuB/bDZgy6DG4CxwG+BGTmCEpHirQLeCDyY5x8ZvBnISuBdvX+KSDl1ASeQs/LDlncDWgwcjxoBkTLaBHwE3wYimxn8CjDQ3sBP0euASFm8AMwFfh3qH3yl/QAXYzuOBGlpRCSX+4HDCFj5Ydsbgq4EjsUGCd0d8sQiMiRPASdhY3SCr8X5Sq8AW/p/52F7mM/GtjASkfC6gTuBa4BLsa3CCpGlARhoDPB24Chsa7FdetO4HP+mSBN1YpOA+tKtWN9b1nU6XP4fR8ILC/VxZG4AAAAASUVORK5CYII=;" parent="1" vertex="1">
          <mxGeometry x="403" y="253.5" width="15" height="15" as="geometry" />
        </mxCell>
        <mxCell id="MQ66HXEbtl4e7zv72a0e-61" value="" style="shape=image;verticalLabelPosition=bottom;labelBackgroundColor=#ffffff;verticalAlign=top;aspect=fixed;imageAspect=0;image=data:image/png,iVBORw0KGgoAAAANSUhEUgAAAQAAAAEACAYAAABccqhmAAAABHNCSVQICAgIfAhkiAAAAAlwSFlzAAAOxAAADsQBlSsOGwAAFl9JREFUeJzt3X20X9Odx/H3vXFvHiSRRIIQlIowxEM0UVppMK2Hehp0BktnKRmGWZ2iD2PS0pmFFtNpVZHFrBkszzODMIsJhop6mjERXUrJoNQVhAjJlefcO3/sc+u6bnK/+zztc87+vNbai9a+e3/P+e3z/Z3zO/vs04I00TbALkmZBGwBjABGJv/s/e8Ay4FlyT97//ti4CXgxaS8WdoWSClaQgcgmbQAewMHAXvy8QE/YmN/lMFyPk4IvwYeBhYA3QX1JwVTAqifScDBuIN+BrB50GhgCfAILhk8hEsQIpKjqcCVQAfu27bKpSOJdWohe0IkEhOA84AXCH9Qpy0vJNswIed9I9JIg4ATgQeBdYQ/gPMq65JtOjHZRhHppQ2YCbxM+IO16PJysq1tuew5kRobAvwV8DrhD8yyy+vJtg/JvBdFaqYNOAdYRPgDMXRZlOwLnREEoNuA5ZsBXA3sWlJ/q4BXcLfreib6dPb6d/h4ctDwXv++OfBZyvuG/i1wFu6WopRECaA8WwA/AU6mmP2+Cvgf4Hncvfie8jrQlbLNVmB73NyDnrIbMI1iEkM3cBPwHdwsRJHaawX+EniffE+d1wCPAxfiJgWVeS09JOnzwiSGNRm2o7/yPm6ftZa1QSJF2B53gOR1YKwAbgeOwp2uV8WmuJhux8WY1/Y+jtuHIrVzFO66O+tBsB53XTwT2KzMDUhpM1ysj+Biz7r9S3D7UqQW2nDX+l1kG/jLgEup9zfg9rht+JBs+6ILt091p0AqbTvgCbJ/4/0QGF1y7EUajdumrGdET+D2sUjlHAi8R/rB/TbwPYp7lLcKhuO28W3S76f3cPtapDKOA1aSbkCvBX5Ksw/8vkbgtnkt6fbZStw+FwnuTNI/uPMYsEf5If9BK2Fvte2B2wdp9t063L6XDDQRKJu/w13b+loM/A1wA24wF6HvsmCTgLF8ctbfpkndj/jkDMF3gYW4lX96VgAqcjmwU3A/Fm6R4m//Hvc5iJSmFZhNum+uucC4AmLaGTeV9g7yuf3YtyxJ2j4r6Stv44D7U8Y2G00akhJdS7pr/Vnke9Z1AHAN8PsU8WQtv0/6PiDH7WkBvk+63wauzTEOkQ26CP/B+QbwxZz63xF32fFKijiKKi8DFwA75LSN00m3/NlFOfUv0q9v4j8o/wt37Z3VF3CXD1knGBVZ1gP3AfvnsL3jcAuN+sbw1zn0LfIpJ+A/tfU2oD1jvweR7kAIXR4i+/36duBfPftdj/usRHLzZWA1fgPxF2T7YWpv4FHPPqtYHk22Ja1W4CrPPlcDX8nQp8gf7ITfXPYu4PwM/Y0ALif9JJkqlrXJNmWZ7HQ+fpc/H+I+O5HUBgPP4Hfwn5Whvz/F3W8PfcAWVd5MtjGts/BLAs/gPkPZAE0E2rir8Dugvw/8KEU/I3C3sYq6dl2F+6V+IW6xjZ4JP53Jf+9ZCmw4MAZ3n38niltk5DbgdD5ekszHLOBij/qzyZaUJVJfw+/b7ecp+9kLd2Dm9S27BngSl4iOwN02TPNbRGvyt0ckbT1Jviv/vIR7n2Eal3v2leWsQyK0E/AB9gF2C+nOps4k/UNEvcsy4DrgMIpdKWh40sd1ZH/Gvxu3etDpKeJowe1zaz8foN8DxGgT4H+xD6778V+oIs0v231LF25ewEnAsDQbmtHQpO+5ZF/55wr8E2gbflOH5+M+W5GN+jb2QfU7YJRn++24a+C0B8s63LdfyKcI+9oDF1OWOxe34J9IRwGvevTx7ZTbJ5GYgDudtgym1bjlsX0MBx4wtt+3rAeup9qnsjvhYkx7RnA/Hz+haDUN+xyNZehFpbIRd2AfrOd6tj0ceMqj/d5lAflMry3L/riY02zrU/j/jnGuR/t3pN8sabLDsQ+iezzbbse9Hdf3YOjEzW2v4xt1B+FiX47/dj+I/xTqezzaPzz9ZkkTDcX+dF0H7l65VSvprvmfo7zXhxVpV9y2+G7/7fjdvhyD/QnCV3CfuQjgHmW1DsyvebZ9pUfbPeWfadYAHYrbJt/9cKVnPz5zNy7IskHSHCOxv7brfs+2fR8fbvo6d2nWT/ymZx/WW4Pv4z57idzfYhswq/BbCmtq8jfWgb4KOD7z1lTf8fjvl895tD/Ro/1ZmbdGam1T3AKdlsFyoUe7vvenl+Ge+4/FQfjNJHwFv9eiXWhsdzH+tx2lQay3j17D75p8jrHdbtxU4BlZN6SGZuA3Ddrn9t1Q3GdmaVeTgyI1BFiEbZCc4dHuTGOb3bjr4WOzb0ptHYvfbwLf8Gj7DGObiyj31epSEWdiGyAd2J8pH4v99WBdpHsQpmlOx/6M/2Lst2AHY78t2OQfXmUDrA/8nOPRps+trqvy2IiG8Hkw6p882j3H2Ob8PDZC6mM37N841ift9sc+B14r1XySz8pL67FPix6G/Ufe3fPZFKmDS7ENCuttohbsA1hr1fXPZ+3FBdgfH55lbPOynLZDKq4V27p7q7Ffbx5taK+nzMxpO5roNOz78Rhjm2OwzQt4E71eLAqHYBtgd3q0+bSxzSfROowb04LbR5Z9+bRHu3ca2zwkj42QarsZ22Cw3p471NjeOmBKXhvRYFOw3xo81Njmscb2bslrI6Sa2rA9nroE++Oo1vfbX53XRkTgamz79HFje+3Y3pi8HP9ViaRGDsA2sGYb25tibG8VsHVeGxGBrbHP57eeVVlf557n244rL7YfPQ421rvZWO/PjfVuwM04E5tFuKXFLKyfwU3GetYxIjX0Kwb+BliKLTFuArxjaG8tbn198bMjtkVG38G22m8rtse+f5XnRkh1DMe2eOQcY3tHGdrqxq0GJOlYV1I6ytie5SGt1RT7boVKiekSYDq2H/YeNrZnPfW83lhPPu16Yz3rZ2H5bNtxY0Ua5ifYvk0mG9raBNustUXUc0HPqhiE7YnND7FdBkw2tNUN/GOeG1FlMZ0B7GOo8y7wG0O9adiWk7oVN3dd0lmP24cDGQnsa6j3HO7ZgIFEM18jpgQwyVBnHu4bYCB/bOxT1//ZWfeh9df7eYY6lrHSCLEkgJHAVoZ6zxnbswy2pegx0zzMx+3LgViTsuUMbysiWTA0lgQwCdsc/JcMdYYBnzfUexS30IVk04XblwPZF9uj25bPuIVIzgJiSQC7GOtZBseu2O4m/NLYpwzM+uu95UUqls8Y7GOm1mJJAJZs3g0szKktsH1riY11co7loF2I7cxMZwANYvkw3wBWGOpZBlkX8KKhnti8SH4H7QrcWoF5tFV7sSQAyw+Alm9/sCeTlcb2ZGArcft0INbTdstnbRkztRdLAhhhqPOusS3raabkK8/LM8tnbRkztacE8LHlxra2MNRRAsifZZ9aPhuwfdZKAA1iuafbaWzLMjCWGNsSO8s+tR60lgSgeQANktcZQCu2e83WZCJ2ls9nGLYxbfl8dAbQEO3Y1uC3DIrh2CYUWS8nxM7y+bRge5TX0tZg7MvC1VYMCSDP08I82xI/1n2a5+89jT8LiCEBWF/8uLrktsTPKmM9y2eUZ1u1FkMCkLjk+d6Fxr/DQQlAJGJKACIRUwIQiZgSgEjElABEIqYEIBIxJQCRiCkBiERMCUAkYkoAIhFTAhCJmBKASMSUAEQipgQgEjElAJGIKQGIREwJQCRiSgAiEVMCEImYEoBIxJQARCKmBCASMSUAkYgpAYhETAlAJGJKACIRUwIQiZgSgEjElABEIqYEIBIxJQCRiDXp/edDgMnAxKRsCQwHxgKHGf7+WaBjgDrDgIMMbc0H3jLUE7vxwD6Geg8DKwaoMwHYy9DWfwKLgeXA28BLSfktsM7w95VX9wQwGTgOOBCYhksCIkVbBswDHgT+DZccpCQjgO8AzwHdKiqBy1rgXuBo6v+FWmkjgYuApYT/0FVU+ivPAsciufs67po69AesomIpDwOTkMzGAfcR/gNVUfEtq4DvIqlNB94k/AepopKl3A2MoqKq+qPF8cCN6Fd9aYYXgK/gvtAqpYoTgU4DbkMHvzTHHwGPATuFDqSvqp0BHIO7r7pJDm11A0uARQw8MUSkP8OArYHNyedYeQ3YD80b6Nc03IGa9lprGXA7cBLwGWBwqdFLkw3GjamTcGNsGenH6XzcDFXpZTQuO6bZoc/h7r3qgJeyDMaNubST0W4uP+Rquwv/nfgGcCowKEC8IuB+QzsVNxZ9x++pAeKtpKPx33lzcFOCRapgOG5M+ozh5cA2IYKtkiHAq9h3WhdwMdX78VKkBTc2u7CP51uDRFoh38Lv4J8ZJkwRs5nYk0AX8IUwYYbXBryOPQFcFiZMEW+XYR/X9wWKMbiTse+k/6Cak5ZE+tOKG7PWswDL4iSN8wC2HfQuFZ5LLbIBo3Bj1zLGZweKMZjxuCWVLDvn7EAximR1NrYxvgRoDxRjEGdg2zGvEtmOkUZpx36X68gQAYa6rv6Ssd6PgTVFBiJSoDW4MWzx5SIDqRrLc/7rcAuCiNTZWGyXu78JFWDZxmE7JXo0VIAiOZuH7W5A6Q8JhbgEsD4TPafQKETKc7ehTguwc9GB9FXlBLCg0ChEyvOMsd7EQqPoR4gEMNZYr3LLJ4mktMhYb3yhUfQjRAKwPsVn3WkiVWcdyyMLjaIfVU0Ay4HOogMRKUknbkwPpPRH3EMkAMt6f6sLj0KkXJYxncdamF70gI1IxJQARCKmBCASMSUAkYgpAYhETAlAJGJKACIRUwIQiVjpEw8kmK1wS1BvnZTxyT/BTVV9K/nnIuBx9ALLKCgBNNtk4CjcclNTsZ/xdQFP41a2vQf3DjyRXPwM20rAkt7hwLPYl10fqDybtCnpWVYI/lnZQek3gGbZD7f6zL3Anjm2u2fS5rykD2kIJYBmGAxch7t2n15gP9OTPq5Dr2NvBCWA+huP+2Y+hXJemtqS9DWPAAtYSL6UAOptKu7Hun0D9L1v0vfUAH1LTpQA6msK8EvCvmN+mySGKQFjkAyUAOppS9yqyZuGDgQXwxxcTFIzmgdQP+3AncC2GdpYiZvw05H87wm4SUFDU7a3bRLTgehNTjIAzQPI5hrS3cvvAH6Kmw3Y34+FLcD+SZ2OlH1ck/O2Nkkl5wGEoASQ3t7AevwOyqXAd/G7bTc4+Zulnn2tT2KUT1MCSCgBpDcXvwPyIbK9X3Fc0oZPn3Mz9NdkSgAJJYB0DsTvQJxNPr/xbJK05dP3gTn02zRKAAklgHQex34AXltA/9d69P9EAf3XnRJAQgnA32dwT+hZDr5HgLYCYmjD3fO3xNAF7FBADHVWyQSgeQD1cDS2ab6dwInA2gJiWAuchO2NTS24x5Cl4pQA6sF6MP0DbmGPoryV9GGhBCD90iWAn9G4yTUD7bP3gGElxDMM2+nsmiR2cXQJIKl8Dts1/RxgRcGxkPQxx1CvDRe7VJgSQPVZH7m9o9AoPulOYz09LlxxSgDVZz2I5hUaRbq+lAAqTgmg+rYy1FlKOaf/PVYkfQ7EErsEpARQfZZv0Y6Bq+TO0qfOACpOCaD6LPf/y1gKrK9uQx2Nr4rTB1R9HxrqZHngJ60xhjofFB6FZKIEUH2Wa+1xlHvPvR1b0rHELgEpAVTfi4Y6rbiFPsqyN7b1BSyxS0BKANW3wFivzKm3XzLWs8YugSgBVN/z2B7AOQnYrOBYepxqqPMR8ELRgUg2SgDVtxa431BvU+DcgmMBOBSYZKg3Fy0QWnlKAPVgmXsPbh2/HQuMox37Ayt3FxiH5EQJoB7mYPtFfShwM8W9t+8iYBdDvaXAXQXFIDlSAqiHTuxLbn8et3xX3pOD/gJ3hmFxDbbfLSRCWg8gnfG4g8q6Lt+tuFP2PHwPWGfstxNNAe6P1gOQTN4CLvGofwLwKLBbhj4nAP8OXAoMMv7NJRS7KpHUnM4A0hsCvIL9LKAbWA38HPisRz/bAz8Clnv29UoSo3xaJc8AQlACyGZ/bEuE9S3rkr8dyH7YT/d7l7XG9mNVyQSgS4D6eQL4YYq/G4RtzcBh2E/3e7sAvQ+gdpQA6ukS4JbQQfRyC36/T0hFKAHUUzdwCvBA4DjAxXAKtvUBpGKUAOprLfAnwL0BY7g3iaGIF5FICZQA6m0FcAxwY4C+b0z6LnMtQsmZEkD9rQOuCtDv1UnfUmNKACIRUwIQiZgSgEjElABEIqYEIBIxJQCRiCkBiERMCUAkYkoAIhFTAhCJmBKASMSUAEQipgQgEjElAJGIKQGIREwJQCRiSgAiEVMCkL6s7xTUIqANoATQDJY3BwNsk1Mdnz6lwpQAmuFNY709DHUm59ynVJgSQDN8BLxnqHcaG/+G3waYaWjnvaRPqTklgOaYa6izGXAnMLGf/zYx+W+b5dSX1MAmoQOQ3NwBnGyoNw34Ne6lHs8l/99k4KvAUI++RFLR24GLMQTowP+tvr6lA70CPA29HVgKtQo4v4R+zk/6kgZQAmiWG4D5BbY/P+lDGkIJoFm6gOOBxQW0vThpu6uAtiUQJYDmeQ04jnxP01clbb6WY5tSAUoAzfQYMAN4O4e23gYOTNqUhlECaK7/BqYC8zK0MQ932/CpXCKSylECaLYO3JnAscBCj79bmPzNDOCN3KOSytBEoDjcBcwB9sVdyx8EbAuMTf77e7hk8TBuks9T6Gm/KCgBxKMbd2D3Pp1vxz3+uzpIRBKcEkDc1oQOQMLSbwAiEVMCEImYEoBIxJQARCKmBCASMSUAkYgpAYhELEQCsDxOOqjwKETKZTnWSp99GSIBWFaT3QxoKzoQkZK0AaMM9TqLDqSvEAlguaFOKzC+6EBESjIe27FmOTZyFSIBfGCsZ31DjUjVbW2sZz02chMiAfzOWK+/tetF6mhnYz3rsZGbEAngZWO9IwqNQqQ8XzXWsx4btdaKu9YZaI30ZcDgQDGK5GUwbiwPNN47CfCFHOo24BOGeiOAgwuORaRoB+PG8kAeJ8CKy6EmAlnXqTun0ChEimcdw1nWbqydvbG/iuqQQDGKZHUI9nG+d6AYg3ke245ZgFu2SqROWnBj1zLGnw8UY1CzsGfH8wLFKJLWedjH96xAMQY1Djct2LKD1gFHhglTxNuRuDFrGdsf4Y6FKF2BPUsuA3YPE6aI2e7Ybvv1lF+ECbMatsV+FtCNe0Hl9CCRigxsOm6MWsfzR7hjIGo/wL7DunFr2J8eJFKRDTsdNzZ9xvIPgkRaMYOBl/Dbcd3ATcB2AeIV6W073Fj0Hb8LgSEB4q2kKcBK/HfiSuAyYHT5IUvkRuPGXppxuwo35qWXs/DfkT2lE/dOu68DY8oOXKIxBjfG7sCNubTj9ayyA9+Qqk2wuRz4VsY21uJOr94EFiVlRcY2JU7DcM/yb41bn2Jnsq9UdQXZx3huqpYAWoBbgT8LHYhIAW4HTiLAQz8bUsXFN+8CJhDh3GhptH8BvkGFDn6oZgLoBu7Bvbn4i1TvLEXERzdwMXB28u/i4TDgHdL/2KKiErIsxo1hyWA8cBvu1Cn0B6qiYilduOt9rWydo4OxP16pohKqLEArWRXqcOARdEagUp3ShRuTh1Mzdf6BbQfgBOA4YC+q+YOmNNd64FncpKDbCLCkdx7qnAB6G4V7Emsf3PsEJgJbAsOToteMSRprcTP+OnE/Rv9fUuYDjxLgRR55+38mj1GgbLSgWAAAAABJRU5ErkJggg==;" parent="1" vertex="1">
          <mxGeometry x="403" y="288.75" width="15" height="15" as="geometry" />
        </mxCell>
        <mxCell id="MQ66HXEbtl4e7zv72a0e-86" value="&lt;b style=&quot;font-size: 18px&quot;&gt;&lt;font style=&quot;font-size: 18px&quot;&gt;FALTA TERMINAR LA &lt;/font&gt;APP MOVIL&lt;/b&gt;" style="text;html=1;align=center;verticalAlign=middle;resizable=0;points=[];autosize=1;" parent="1" vertex="1">
          <mxGeometry x="290" y="-60" width="300" height="20" as="geometry" />
        </mxCell>
        <mxCell id="T730AlBzIM1R5gKessqT-1" value="&lt;font style=&quot;font-size: 12px&quot;&gt;Búsqueda de Informacion&amp;nbsp;&lt;/font&gt;" style="text;html=1;align=center;verticalAlign=middle;resizable=0;points=[];autosize=1;fontSize=10;" parent="1" vertex="1">
          <mxGeometry x="1387" y="464.99999999999994" width="160" height="20" as="geometry" />
        </mxCell>
        <mxCell id="T730AlBzIM1R5gKessqT-8" value="" style="html=1;shadow=0;dashed=0;shape=mxgraph.bootstrap.rrect;rSize=5;strokeColor=#E6E6E6;html=1;whiteSpace=wrap;fillColor=#E6E6E6;fontColor=#ffffff;verticalAlign=bottom;align=left;spacing=9;spacingBottom=0;fontSize=14;spacingLeft=6;" parent="1" vertex="1">
          <mxGeometry x="1388.5" y="150" width="163" height="55" as="geometry" />
        </mxCell>
        <mxCell id="T730AlBzIM1R5gKessqT-9" value="" style="endArrow=none;html=1;fontSize=10;entryX=0.979;entryY=0.026;entryDx=0;entryDy=0;entryPerimeter=0;exitX=0.012;exitY=0.992;exitDx=0;exitDy=0;exitPerimeter=0;fontColor=#999999;strokeColor=#999999;" parent="1" source="T730AlBzIM1R5gKessqT-8" target="T730AlBzIM1R5gKessqT-8" edge="1">
          <mxGeometry width="50" height="50" relative="1" as="geometry">
            <mxPoint x="1402.5" y="255" as="sourcePoint" />
            <mxPoint x="1432.5" y="225" as="targetPoint" />
          </mxGeometry>
        </mxCell>
        <mxCell id="T730AlBzIM1R5gKessqT-10" value="" style="endArrow=none;html=1;fontSize=10;entryX=0.004;entryY=0.022;entryDx=0;entryDy=0;entryPerimeter=0;exitX=0.98;exitY=0.98;exitDx=0;exitDy=0;exitPerimeter=0;strokeColor=#999999;" parent="1" source="T730AlBzIM1R5gKessqT-8" target="T730AlBzIM1R5gKessqT-8" edge="1">
          <mxGeometry width="50" height="50" relative="1" as="geometry">
            <mxPoint x="1405" y="267.5" as="sourcePoint" />
            <mxPoint x="1458.185" y="214.37" as="targetPoint" />
          </mxGeometry>
        </mxCell>
        <mxCell id="T730AlBzIM1R5gKessqT-12" value="" style="html=1;shadow=0;dashed=0;shape=mxgraph.bootstrap.rrect;rSize=5;strokeColor=#E6E6E6;html=1;whiteSpace=wrap;fillColor=#E6E6E6;fontColor=#ffffff;verticalAlign=bottom;align=left;spacing=9;spacingBottom=0;fontSize=14;spacingLeft=6;" parent="1" vertex="1">
          <mxGeometry x="1390" y="226.5" width="163" height="55" as="geometry" />
        </mxCell>
        <mxCell id="T730AlBzIM1R5gKessqT-13" value="" style="endArrow=none;html=1;fontSize=10;entryX=0.979;entryY=0.026;entryDx=0;entryDy=0;entryPerimeter=0;exitX=0.012;exitY=0.992;exitDx=0;exitDy=0;exitPerimeter=0;fontColor=#999999;strokeColor=#999999;" parent="1" source="T730AlBzIM1R5gKessqT-12" target="T730AlBzIM1R5gKessqT-12" edge="1">
          <mxGeometry width="50" height="50" relative="1" as="geometry">
            <mxPoint x="1403.5" y="321.5" as="sourcePoint" />
            <mxPoint x="1433.5" y="291.5" as="targetPoint" />
          </mxGeometry>
        </mxCell>
        <mxCell id="T730AlBzIM1R5gKessqT-14" value="" style="endArrow=none;html=1;fontSize=10;entryX=0.004;entryY=0.022;entryDx=0;entryDy=0;entryPerimeter=0;exitX=0.98;exitY=0.98;exitDx=0;exitDy=0;exitPerimeter=0;strokeColor=#999999;" parent="1" source="T730AlBzIM1R5gKessqT-12" target="T730AlBzIM1R5gKessqT-12" edge="1">
          <mxGeometry width="50" height="50" relative="1" as="geometry">
            <mxPoint x="1406" y="334" as="sourcePoint" />
            <mxPoint x="1459.185" y="280.87" as="targetPoint" />
          </mxGeometry>
        </mxCell>
        <mxCell id="T730AlBzIM1R5gKessqT-15" value="" style="html=1;shadow=0;dashed=0;shape=mxgraph.bootstrap.rrect;rSize=5;strokeColor=#E6E6E6;html=1;whiteSpace=wrap;fillColor=#E6E6E6;fontColor=#ffffff;verticalAlign=bottom;align=left;spacing=9;spacingBottom=0;fontSize=14;spacingLeft=6;" parent="1" vertex="1">
          <mxGeometry x="1390" y="304" width="163" height="55" as="geometry" />
        </mxCell>
        <mxCell id="T730AlBzIM1R5gKessqT-16" value="" style="endArrow=none;html=1;fontSize=10;entryX=0.979;entryY=0.026;entryDx=0;entryDy=0;entryPerimeter=0;exitX=0.012;exitY=0.992;exitDx=0;exitDy=0;exitPerimeter=0;fontColor=#999999;strokeColor=#999999;" parent="1" source="T730AlBzIM1R5gKessqT-15" target="T730AlBzIM1R5gKessqT-15" edge="1">
          <mxGeometry width="50" height="50" relative="1" as="geometry">
            <mxPoint x="1399.5" y="385" as="sourcePoint" />
            <mxPoint x="1429.5" y="355" as="targetPoint" />
          </mxGeometry>
        </mxCell>
        <mxCell id="T730AlBzIM1R5gKessqT-17" value="" style="endArrow=none;html=1;fontSize=10;entryX=0.004;entryY=0.022;entryDx=0;entryDy=0;entryPerimeter=0;exitX=0.98;exitY=0.98;exitDx=0;exitDy=0;exitPerimeter=0;strokeColor=#999999;" parent="1" source="T730AlBzIM1R5gKessqT-15" target="T730AlBzIM1R5gKessqT-15" edge="1">
          <mxGeometry width="50" height="50" relative="1" as="geometry">
            <mxPoint x="1402" y="397.5" as="sourcePoint" />
            <mxPoint x="1455.185" y="344.37" as="targetPoint" />
          </mxGeometry>
        </mxCell>
        <mxCell id="T730AlBzIM1R5gKessqT-19" value="" style="html=1;shadow=0;dashed=0;shape=mxgraph.bootstrap.rrect;rSize=5;strokeColor=#E6E6E6;html=1;whiteSpace=wrap;fillColor=#E6E6E6;fontColor=#ffffff;verticalAlign=bottom;align=left;spacing=9;spacingBottom=0;fontSize=14;spacingLeft=6;" parent="1" vertex="1">
          <mxGeometry x="1162.75" y="-327" width="163" height="55" as="geometry" />
        </mxCell>
        <mxCell id="T730AlBzIM1R5gKessqT-20" value="" style="endArrow=none;html=1;fontSize=10;entryX=0.979;entryY=0.026;entryDx=0;entryDy=0;entryPerimeter=0;exitX=0.012;exitY=0.992;exitDx=0;exitDy=0;exitPerimeter=0;fontColor=#999999;strokeColor=#999999;" parent="1" source="T730AlBzIM1R5gKessqT-19" target="T730AlBzIM1R5gKessqT-19" edge="1">
          <mxGeometry width="50" height="50" relative="1" as="geometry">
            <mxPoint x="1176.75" y="-222" as="sourcePoint" />
            <mxPoint x="1206.75" y="-252" as="targetPoint" />
          </mxGeometry>
        </mxCell>
        <mxCell id="T730AlBzIM1R5gKessqT-21" value="" style="endArrow=none;html=1;fontSize=10;entryX=0.004;entryY=0.022;entryDx=0;entryDy=0;entryPerimeter=0;exitX=0.98;exitY=0.98;exitDx=0;exitDy=0;exitPerimeter=0;strokeColor=#999999;" parent="1" source="T730AlBzIM1R5gKessqT-19" target="T730AlBzIM1R5gKessqT-19" edge="1">
          <mxGeometry width="50" height="50" relative="1" as="geometry">
            <mxPoint x="1179.25" y="-209.5" as="sourcePoint" />
            <mxPoint x="1232.435" y="-262.63" as="targetPoint" />
          </mxGeometry>
        </mxCell>
        <mxCell id="T730AlBzIM1R5gKessqT-22" value="" style="html=1;shadow=0;dashed=0;shape=mxgraph.bootstrap.rrect;rSize=5;strokeColor=#E6E6E6;html=1;whiteSpace=wrap;fillColor=#E6E6E6;fontColor=#ffffff;verticalAlign=bottom;align=left;spacing=9;spacingBottom=0;fontSize=14;spacingLeft=6;" parent="1" vertex="1">
          <mxGeometry x="1162.75" y="-251.5" width="163" height="55" as="geometry" />
        </mxCell>
        <mxCell id="T730AlBzIM1R5gKessqT-23" value="" style="endArrow=none;html=1;fontSize=10;entryX=0.979;entryY=0.026;entryDx=0;entryDy=0;entryPerimeter=0;exitX=0.012;exitY=0.992;exitDx=0;exitDy=0;exitPerimeter=0;fontColor=#999999;strokeColor=#999999;" parent="1" source="T730AlBzIM1R5gKessqT-22" target="T730AlBzIM1R5gKessqT-22" edge="1">
          <mxGeometry width="50" height="50" relative="1" as="geometry">
            <mxPoint x="1177.75" y="-155.5" as="sourcePoint" />
            <mxPoint x="1207.75" y="-185.5" as="targetPoint" />
          </mxGeometry>
        </mxCell>
        <mxCell id="T730AlBzIM1R5gKessqT-24" value="" style="endArrow=none;html=1;fontSize=10;entryX=0.004;entryY=0.022;entryDx=0;entryDy=0;entryPerimeter=0;exitX=0.98;exitY=0.98;exitDx=0;exitDy=0;exitPerimeter=0;strokeColor=#999999;" parent="1" source="T730AlBzIM1R5gKessqT-22" target="T730AlBzIM1R5gKessqT-22" edge="1">
          <mxGeometry width="50" height="50" relative="1" as="geometry">
            <mxPoint x="1180.25" y="-143" as="sourcePoint" />
            <mxPoint x="1233.435" y="-196.13" as="targetPoint" />
          </mxGeometry>
        </mxCell>
        <mxCell id="T730AlBzIM1R5gKessqT-25" value="" style="html=1;shadow=0;dashed=0;shape=mxgraph.bootstrap.rrect;rSize=5;strokeColor=#E6E6E6;html=1;whiteSpace=wrap;fillColor=#E6E6E6;fontColor=#ffffff;verticalAlign=bottom;align=left;spacing=9;spacingBottom=0;fontSize=14;spacingLeft=6;" parent="1" vertex="1">
          <mxGeometry x="1162" y="-174" width="163" height="55" as="geometry" />
        </mxCell>
        <mxCell id="T730AlBzIM1R5gKessqT-26" value="" style="endArrow=none;html=1;fontSize=10;entryX=0.979;entryY=0.026;entryDx=0;entryDy=0;entryPerimeter=0;exitX=0.012;exitY=0.992;exitDx=0;exitDy=0;exitPerimeter=0;fontColor=#999999;strokeColor=#999999;" parent="1" source="T730AlBzIM1R5gKessqT-25" target="T730AlBzIM1R5gKessqT-25" edge="1">
          <mxGeometry width="50" height="50" relative="1" as="geometry">
            <mxPoint x="1173.75" y="-92" as="sourcePoint" />
            <mxPoint x="1203.75" y="-122" as="targetPoint" />
          </mxGeometry>
        </mxCell>
        <mxCell id="T730AlBzIM1R5gKessqT-27" value="" style="endArrow=none;html=1;fontSize=10;entryX=0.004;entryY=0.022;entryDx=0;entryDy=0;entryPerimeter=0;exitX=0.98;exitY=0.98;exitDx=0;exitDy=0;exitPerimeter=0;strokeColor=#999999;" parent="1" source="T730AlBzIM1R5gKessqT-25" target="T730AlBzIM1R5gKessqT-25" edge="1">
          <mxGeometry width="50" height="50" relative="1" as="geometry">
            <mxPoint x="1176.25" y="-79.5" as="sourcePoint" />
            <mxPoint x="1229.435" y="-132.63" as="targetPoint" />
          </mxGeometry>
        </mxCell>
        <mxCell id="T730AlBzIM1R5gKessqT-28" value="Santa Anita" style="text;html=1;strokeColor=none;fillColor=none;align=center;verticalAlign=middle;whiteSpace=wrap;rounded=0;fontSize=8;" parent="1" vertex="1">
          <mxGeometry x="1215" y="-272" width="55" height="20" as="geometry" />
        </mxCell>
        <mxCell id="T730AlBzIM1R5gKessqT-29" value="Miraflores" style="text;html=1;strokeColor=none;fillColor=none;align=center;verticalAlign=middle;whiteSpace=wrap;rounded=0;fontSize=8;" parent="1" vertex="1">
          <mxGeometry x="1217.5" y="-196.5" width="55" height="20" as="geometry" />
        </mxCell>
        <mxCell id="T730AlBzIM1R5gKessqT-30" value="La Victoria" style="text;html=1;strokeColor=none;fillColor=none;align=center;verticalAlign=middle;whiteSpace=wrap;rounded=0;fontSize=8;" parent="1" vertex="1">
          <mxGeometry x="1217.5" y="-118.5" width="55" height="20" as="geometry" />
        </mxCell>
        <mxCell id="T730AlBzIM1R5gKessqT-31" value="" style="html=1;shadow=0;dashed=0;shape=mxgraph.bootstrap.rrect;rSize=5;strokeColor=#E6E6E6;html=1;whiteSpace=wrap;fillColor=#E6E6E6;fontColor=#ffffff;verticalAlign=bottom;align=left;spacing=9;spacingBottom=0;fontSize=14;spacingLeft=6;" parent="1" vertex="1">
          <mxGeometry x="1345" y="-680" width="163" height="55" as="geometry" />
        </mxCell>
        <mxCell id="T730AlBzIM1R5gKessqT-32" value="" style="verticalLabelPosition=bottom;verticalAlign=top;html=1;shape=mxgraph.basic.star;fontSize=8;fillColor=#FFFF33;strokeColor=#4D4D4D;" parent="1" vertex="1">
          <mxGeometry x="1428" y="-639" width="10" height="10" as="geometry" />
        </mxCell>
        <mxCell id="T730AlBzIM1R5gKessqT-33" value="" style="verticalLabelPosition=bottom;verticalAlign=top;html=1;shape=mxgraph.basic.star;fontSize=8;fillColor=#FFFF33;strokeColor=#4D4D4D;" parent="1" vertex="1">
          <mxGeometry x="1448" y="-639" width="10" height="10" as="geometry" />
        </mxCell>
        <mxCell id="T730AlBzIM1R5gKessqT-34" value="" style="verticalLabelPosition=bottom;verticalAlign=top;html=1;shape=mxgraph.basic.star;fontSize=8;fillColor=#FFFF33;strokeColor=#4D4D4D;" parent="1" vertex="1">
          <mxGeometry x="1468" y="-639" width="10" height="10" as="geometry" />
        </mxCell>
        <mxCell id="T730AlBzIM1R5gKessqT-35" value="" style="verticalLabelPosition=bottom;verticalAlign=top;html=1;shape=mxgraph.basic.star;fontSize=8;fillColor=#FFFF33;strokeColor=#4D4D4D;" parent="1" vertex="1">
          <mxGeometry x="1488" y="-639" width="10" height="10" as="geometry" />
        </mxCell>
        <mxCell id="T730AlBzIM1R5gKessqT-36" value="" style="verticalLabelPosition=bottom;verticalAlign=top;html=1;shape=mxgraph.basic.star;fontSize=8;fontColor=#000000;fillColor=#FFFF33;strokeColor=#4D4D4D;" parent="1" vertex="1">
          <mxGeometry x="1408" y="-639" width="10" height="10" as="geometry" />
        </mxCell>
        <mxCell id="T730AlBzIM1R5gKessqT-37" value="Bolichera 2335" style="text;html=1;strokeColor=none;fillColor=none;align=center;verticalAlign=middle;whiteSpace=wrap;rounded=0;fontSize=8;fontColor=#000000;" parent="1" vertex="1">
          <mxGeometry x="1436.5" y="205" width="70" height="20" as="geometry" />
        </mxCell>
        <mxCell id="T730AlBzIM1R5gKessqT-38" value="Lima 22" style="text;html=1;strokeColor=none;fillColor=none;align=center;verticalAlign=middle;whiteSpace=wrap;rounded=0;fontSize=8;fontColor=#000000;" parent="1" vertex="1">
          <mxGeometry x="1436.5" y="281.5" width="70" height="20" as="geometry" />
        </mxCell>
        <mxCell id="T730AlBzIM1R5gKessqT-39" value="Las Barras de Ronald" style="text;html=1;strokeColor=none;fillColor=none;align=center;verticalAlign=middle;whiteSpace=wrap;rounded=0;fontSize=8;fontColor=#000000;" parent="1" vertex="1">
          <mxGeometry x="1433.25" y="359" width="87.5" height="20" as="geometry" />
        </mxCell>
        <mxCell id="eJ25O3bxqKITnhWrc3Jj-1" value="" style="verticalLabelPosition=bottom;verticalAlign=top;html=1;shadow=0;dashed=0;strokeWidth=1;shape=mxgraph.android.indeterminateSpinner;" vertex="1" parent="1">
          <mxGeometry x="815" y="220" width="50" height="50" as="geometry" />
        </mxCell>
        <mxCell id="eJ25O3bxqKITnhWrc3Jj-2" value="" style="rounded=0;whiteSpace=wrap;html=1;fillColor=#CCCCCC;" vertex="1" parent="1">
          <mxGeometry x="1069" y="615.82" width="141" height="298" as="geometry" />
        </mxCell>
      </root>
    </mxGraphModel>
  </diagram>
</mxfile>
